<?xml version="1.0" standalone="no"?>
<!DOCTYPE svg PUBLIC "-//W3C//DTD SVG 1.1//EN" "http://www.w3.org/Graphics/SVG/1.1/DTD/svg11.dtd" >
<svg xmlns="http://www.w3.org/2000/svg">
<metadata></metadata>
<defs>
<font id="frutiger_47_light_condensedRg" horiz-adv-x="983" >
<font-face units-per-em="2048" ascent="1638" descent="-410" />
<missing-glyph horiz-adv-x="491" />
<glyph horiz-adv-x="0" />
<glyph horiz-adv-x="682" />
<glyph unicode=" "  horiz-adv-x="491" />
<glyph unicode="&#x09;" horiz-adv-x="491" />
<glyph unicode="&#xa0;" horiz-adv-x="491" />
<glyph unicode="!" horiz-adv-x="720" d="M285 0v184h151v-184h-151zM285 1430h151l-20 -1078h-111z" />
<glyph unicode="&#x22;" d="M287 1081v455h119v-455h-119zM578 1081v455h118v-455h-118z" />
<glyph unicode="#" d="M49 455v102h193l39 315h-181v103h193l53 455h103l-54 -455h256l54 455h102l-53 -455h180v-103h-193l-39 -315h181v-102h-193l-53 -455h-102l53 455h-256l-53 -455h-103l53 455h-180zM344 557h256l39 315h-256z" />
<glyph unicode="$" d="M160 1098q0 72 20 129.5t50 93t71 61t77 37.5t75 17v168h73v-160h6q102 0 226 -45l-6 -144q-35 21 -61 33.5t-71.5 24.5t-93.5 12v-522q94 -69 143.5 -111t88.5 -91.5t52 -99.5t13 -120q0 -152 -82 -256.5t-215 -132.5v-182h-73v176h-13q-165 0 -270 67l8 148 q45 -40 101.5 -63.5t89.5 -28.5t61 -5h23v582l-35 25q-149 101 -203.5 183t-54.5 204zM295 1116q0 -86 37 -140t121 -116v457q-158 -47 -158 -201zM526 119q49 16 84 50t50.5 73t21.5 68.5t6 51.5q0 89 -39 149.5t-123 123.5v-516z" />
<glyph unicode="%" horiz-adv-x="1669" d="M147 1057q0 79 14 145t44 122.5t85 88t130 31.5q61 0 108.5 -21.5t78 -57t50 -86.5t27.5 -105t8 -117t-8 -117t-27.5 -105t-50 -86.5t-78 -57t-108.5 -21.5q-75 0 -130 31.5t-85 88t-44 122.5t-14 145zM266 1057q0 -25 0.5 -40.5t3.5 -47.5t8 -54t16.5 -49.5t27.5 -44.5 t41 -29t57 -12t57 12t41 28.5t27 44.5t16.5 49.5t8 54t3 47.5t0.5 41q0 25 -0.5 40.5t-3 48t-8 53.5t-16.5 49t-27 44.5t-41 28.5t-57 12t-57 -12t-41 -28.5t-27.5 -44t-16.5 -49.5t-8 -54t-3.5 -47.5t-0.5 -40.5zM457 -68l641 1565h110l-641 -1565h-110zM977 373 q0 63 8 117t27.5 105t50 86.5t78 57t108.5 21.5q75 0 130 -31.5t85 -88t44 -122.5t14 -145t-14 -145t-44 -122.5t-85 -88t-130 -31.5q-61 0 -108.5 21.5t-78 57t-50 86.5t-27.5 105t-8 117zM1096 373q0 -26 0.5 -41t3 -47.5t8 -54t16.5 -49.5t27 -44.5t41 -28.5t57 -12 t57 12t41 29t27.5 44.5t16.5 49.5t8 54t3.5 47.5t0.5 40.5t-0.5 40.5t-3.5 47.5t-8 54t-16.5 49.5t-27.5 44t-41 28.5t-57 12t-57 -12t-41 -28.5t-27 -44.5t-16.5 -49t-8 -53.5t-3 -48t-0.5 -40.5z" />
<glyph unicode="&#x26;" horiz-adv-x="1175" d="M115 397q0 267 282 416q-72 87 -112.5 165t-40.5 171q0 33 9 70t32.5 78t58.5 73t92 53t127 21q88 0 154 -42t97.5 -103t31.5 -128q0 -58 -16 -109t-39.5 -88.5t-63.5 -75.5t-74.5 -63.5t-85.5 -58.5l295 -411q37 74 63 192.5t33 249.5h119q-31 -348 -143 -545l209 -262 h-162l-119 172q-8 -18 -31.5 -44.5t-65.5 -60.5t-112 -57.5t-151 -23.5q-106 0 -184 33.5t-121 93t-62.5 130t-19.5 154.5zM242 375q0 -22 5.5 -51t23.5 -69.5t46 -72.5t78.5 -55t114.5 -23q84 0 162 44t125 114l-334 467q-81 -57 -125.5 -103t-70 -108t-25.5 -143z M371 1141q0 -61 29.5 -119.5t99.5 -157.5q31 19 51 32.5t55.5 43.5t57 58t38.5 70.5t17 86.5q0 19 -3.5 39t-15 44.5t-28.5 43t-47.5 31t-69.5 12.5q-90 0 -137 -57t-47 -127z" />
<glyph unicode="'" horiz-adv-x="491" d="M186 1081v455h119v-455h-119z" />
<glyph unicode="(" horiz-adv-x="530" d="M94 631q0 436 281 917l98 -12q-78 -168 -127 -294.5t-87 -292.5t-38 -318t38 -318t87 -292.5t127 -294.5l-98 -13q-281 481 -281 918z" />
<glyph unicode=")" horiz-adv-x="530" d="M57 -274q78 168 127 294.5t87 292.5t38 318t-38 318t-87 292.5t-127 294.5l99 12q280 -479 280 -917t-280 -918z" />
<glyph unicode="*" d="M172 1260l41 118l231 -108l-16 266h127l-16 -266l231 108l41 -118l-242 -80l150 -238l-107 -59l-120 235l-121 -235l-107 59l150 238z" />
<glyph unicode="+" horiz-adv-x="1228" d="M96 467v102h467v467h103v-467h467v-102h-467v-467h-103v467h-467z" />
<glyph unicode="," horiz-adv-x="491" d="M76 -270l98 454h152l-131 -454h-119z" />
<glyph unicode="-" horiz-adv-x="606" d="M94 512v119h418v-119h-418z" />
<glyph unicode="." horiz-adv-x="491" d="M166 0v201h160v-201h-160z" />
<glyph unicode="/" horiz-adv-x="530" d="M23 -14l383 1458h102l-383 -1458h-102z" />
<glyph unicode="0" d="M94 715q0 60 3.5 119t14.5 133.5t29 139t48.5 128t71 108.5t100 73t131.5 28t131.5 -28t99.5 -73t71 -108.5t48.5 -128t28.5 -139t14.5 -133.5t3.5 -119t-3.5 -119t-14.5 -133.5t-28.5 -139t-48.5 -128t-71 -108.5t-99.5 -73t-131.5 -28t-131.5 28t-100 73t-71 108.5 t-48.5 128t-29 139t-14.5 133.5t-3.5 119zM221 715q0 -46 1.5 -88t7.5 -106.5t16.5 -118t31.5 -111t48.5 -97t70 -65t95.5 -25.5t95.5 25.5t70 65t48 97t31 110.5t16.5 118t7.5 107t1.5 88t-1.5 88t-7.5 106.5t-16.5 117.5t-31 110.5t-48 97t-70 65t-95.5 25.5t-95.5 -25.5 t-70 -65t-48.5 -97t-31.5 -110.5t-16.5 -117.5t-7.5 -106.5t-1.5 -88z" />
<glyph unicode="1" d="M246 1167l254 263h127v-1430h-127v1286l-185 -213z" />
<glyph unicode="2" d="M137 0v125l109 135q162 200 217 276q229 319 229 533q0 116 -55 186t-168 70q-65 0 -141.5 -33t-130.5 -80l-19 142q138 90 301 90q74 0 133.5 -22t99 -58.5t66 -85.5t38 -101.5t11.5 -107.5q0 -77 -27.5 -166t-63 -160t-93 -157t-92.5 -131.5t-86 -108.5l-184 -227h565 v-119h-709z" />
<glyph unicode="3" d="M100 43l11 139q35 -24 117.5 -51t148.5 -27q63 0 118 17.5t100 53t71 96.5t26 141q0 131 -89.5 200.5t-225.5 69.5h-119v119q68 0 121.5 5t113 21.5t98.5 45t65 78.5t26 118q0 19 -3 41.5t-19.5 63.5t-44 72t-84.5 55t-134 24q-120 0 -235 -84l-10 135q38 26 122.5 47 t139.5 21q89 0 160.5 -24.5t115.5 -62.5t73.5 -87.5t41.5 -96.5t12 -92q0 -247 -256 -321v-4q45 -7 90.5 -34t85.5 -70.5t65 -111t25 -145.5q0 -201 -120.5 -305t-341.5 -104q-153 0 -265 57z" />
<glyph unicode="4" d="M63 342v129l527 959h168v-969h162v-119h-162v-342h-127v342h-568zM174 461h457v842h-4z" />
<glyph unicode="5" d="M178 41l6 137q110 -74 246 -74q67 0 121.5 21t89 55t58 80.5t33 94.5t9.5 100q0 66 -17 120.5t-52 99.5t-96.5 70t-143.5 25q-79 0 -119.5 -9.5t-111.5 -39.5q-2 0 -4.5 -1t-3.5 -1v711h608v-119h-490v-451q77 29 158 29q93 0 165 -24t117 -64t74 -97t40.5 -117.5 t11.5 -131.5q0 -211 -116 -340t-337 -129q-59 0 -109 9.5t-73.5 18.5t-63.5 27z" />
<glyph unicode="6" d="M94 618q0 59 1 102t11 136t27 161.5t54.5 154t88.5 140.5t133 93.5t185 38.5q113 0 235 -39l-10 -143q-4 2 -23 12.5t-34.5 17t-39.5 15.5t-53.5 13.5t-62.5 4.5q-78 0 -141 -32t-103 -79.5t-69.5 -114t-44 -124.5t-23.5 -121t-10.5 -94.5t-1.5 -54.5h4q24 53 58.5 92 t66 59t68.5 32t59.5 14.5t44.5 2.5q84 0 151 -32t108 -81.5t68 -114t37.5 -124t10.5 -117.5q0 -60 -12 -120t-42 -120.5t-74 -106t-113.5 -74.5t-155.5 -29q-72 0 -131 23t-99.5 60.5t-71.5 91t-48.5 108.5t-29 120t-15 118.5t-3.5 110.5zM246 453q0 -81 16.5 -144 t41.5 -100.5t59 -62t65.5 -33.5t63.5 -9q47 0 90 17.5t83.5 56t64.5 110.5t24 169q0 34 -6 73t-24 86t-45.5 83.5t-76 61.5t-110.5 25q-110 0 -178 -93t-68 -240z" />
<glyph unicode="7" d="M133 1311v119h717v-125l-449 -1305h-143l465 1311h-590z" />
<glyph unicode="8" d="M90 373q0 72 26 135.5t59.5 102.5t77 71t68 44.5t41.5 18.5q-111 61 -174 153.5t-63 211.5q0 70 24 128t62 95.5t87.5 63t98.5 36.5t97 11q82 0 147 -22t104 -55.5t65 -78.5t36 -87.5t10 -84.5q0 -57 -18.5 -109.5t-41.5 -87.5t-62.5 -72.5t-62 -54t-59.5 -42.5 q32 -17 49.5 -26.5t51 -31.5t54.5 -41t47.5 -49.5t41.5 -61.5t26 -73t11 -88q0 -52 -12 -104t-42 -105t-74.5 -93t-116 -65.5t-159.5 -25.5q-124 0 -216 54t-137.5 141t-45.5 192zM225 369q0 -108 73 -186.5t200 -78.5q38 0 78.5 12.5t83.5 40.5t70.5 85t27.5 135 q0 49 -18.5 93t-44.5 75t-68 60.5t-74.5 47t-79.5 39.5l-41 -24q-59 -33 -101 -70.5t-62 -67t-30.5 -65.5t-12 -53t-1.5 -43zM260 1096q0 -92 66.5 -172t189.5 -125q103 74 154 154.5t51 156.5q0 95 -69.5 155t-162.5 60q-92 0 -160.5 -65t-68.5 -164z" />
<glyph unicode="9" d="M94 993q0 60 12.5 120t42 120.5t73.5 106.5t114 75t156 29q72 0 131 -23t99.5 -60.5t71 -91t48.5 -109t29 -120.5t14.5 -118.5t3.5 -110.5q0 -59 -1 -102t-11 -136t-27 -161.5t-54.5 -154t-88.5 -140t-133 -93t-185 -38.5q-113 0 -235 39l10 143q4 -2 22.5 -12.5 t34.5 -17.5t40 -16t53.5 -13.5t62.5 -4.5q78 0 141 32t103 80t69.5 114t44 124t23.5 121.5t10.5 95t1.5 54.5h-4q-24 -53 -58.5 -92t-66 -59.5t-68.5 -32.5t-59.5 -14.5t-44.5 -2.5q-84 0 -151 32t-108 81.5t-68 114t-37.5 124t-10.5 117.5zM229 973q0 -45 11.5 -95t38 -106 t82 -92.5t131.5 -36.5q110 0 177.5 93.5t67.5 240.5q0 81 -16.5 144t-41.5 100.5t-58.5 61.5t-65 33t-63.5 9q-47 0 -90.5 -17.5t-83.5 -55.5t-64.5 -110t-24.5 -169z" />
<glyph unicode=":" horiz-adv-x="491" d="M166 0v201h160v-201h-160zM166 844v200h160v-200h-160z" />
<glyph unicode=";" horiz-adv-x="491" d="M76 -270l98 454h152l-131 -454h-119zM166 844v200h160v-200h-160z" />
<glyph unicode="&#x3c;" horiz-adv-x="1228" d="M96 463v110l1037 478v-111l-910 -422l910 -422v-110z" />
<glyph unicode="=" horiz-adv-x="1228" d="M96 268v103h1037v-103h-1037zM96 666v102h1037v-102h-1037z" />
<glyph unicode="&#x3e;" horiz-adv-x="1228" d="M96 -14v110l910 422l-910 422v111l1037 -478v-110z" />
<glyph unicode="?" horiz-adv-x="909" d="M182 1397q117 47 221 47q79 0 142.5 -19t104.5 -51.5t68.5 -77.5t39.5 -93.5t12 -102.5q0 -95 -31 -172t-145 -240q-73 -103 -94 -166t-21 -172h-119q7 160 27 217t111 190l18 27q71 104 95 171.5t24 129.5q0 106 -62 173t-167 67q-108 0 -213 -68zM336 0v184h151v-184 h-151z" />
<glyph unicode="@" horiz-adv-x="1638" d="M90 715q0 148 57.5 283t155.5 233t233 155.5t283 57.5q152 0 285.5 -43.5t231.5 -121t155 -192.5t57 -251q0 -125 -63 -249.5t-163 -203t-202 -78.5q-77 0 -127.5 35t-50.5 94h-2q-124 -129 -262 -129q-123 0 -191.5 79t-68.5 200q0 98 35.5 197.5t96 179.5t150.5 130 t191 50q154 0 211 -160h6l45 127h102l-194 -559q-3 -9 -10 -26.5t-11 -32t-4 -25.5q0 -30 18 -47.5t70 -18.5q80 1 156 68.5t121 170.5t45 204q0 120 -51.5 218t-138.5 160.5t-199.5 96t-237.5 33.5q-170 0 -314 -84t-228 -230.5t-84 -320.5t84 -320.5t228 -230.5t314 -84 q183 0 339 64t245 198h110q-101 -175 -286.5 -265.5t-407.5 -90.5q-148 0 -283 57.5t-233 155.5t-155.5 233t-57.5 283zM520 594q0 -195 168 -195q73 0 141 48t112.5 119t71.5 150.5t27 145.5q0 185 -157 185q-63 0 -121 -29.5t-101 -77.5t-75.5 -107.5t-49 -121.5 t-16.5 -117z" />
<glyph unicode="A" horiz-adv-x="1138" d="M27 0l475 1430h135l475 -1430h-135l-125 393h-569l-129 -393h-127zM319 512h494l-242 782h-4z" />
<glyph unicode="B" horiz-adv-x="1024" d="M164 0v1430h334q90 0 162 -29t115.5 -78.5t66 -110.5t22.5 -129q0 -239 -225 -331v-4q111 -31 183.5 -117.5t72.5 -231.5q0 -82 -22.5 -147.5t-55 -106.5t-82.5 -70.5t-90.5 -43.5t-95 -21.5t-79.5 -8.5t-60 -1h-246zM291 119h180q57 0 103 13t75 33t51 48t33 53 t17.5 53.5t8 44t1.5 29.5q0 129 -73 209t-202 80h-194v-563zM291 801h174q116 0 190 71t74 195q0 109 -64 176.5t-196 67.5h-178v-510z" />
<glyph unicode="C" horiz-adv-x="1099" d="M117 723q0 114 21 217t68.5 196t117.5 160.5t174.5 107.5t232.5 40q143 0 240 -47l-6 -144q-32 27 -102 49.5t-142 22.5q-27 0 -58 -4t-78.5 -19t-90.5 -39.5t-88.5 -71t-78.5 -107.5t-54 -155.5t-21 -209.5q0 -142 33.5 -254.5t83.5 -178t115.5 -108.5t122.5 -58.5 t112 -15.5q51 0 96 9.5t70 20t76 34.5l6 -137q-125 -45 -244 -45q-124 0 -225.5 40t-171.5 109t-117.5 163.5t-69.5 201t-22 223.5z" />
<glyph unicode="D" horiz-adv-x="1138" d="M164 0v1430h186q355 0 527 -173t172 -522q0 -127 -24.5 -236.5t-77 -202t-129.5 -158t-187.5 -102t-245.5 -36.5h-221zM291 119h131q234 0 362.5 161.5t128.5 434.5q0 57 -3 104t-15.5 111t-33 114t-59.5 102t-91.5 86.5t-132.5 56.5t-179 22h-108v-1192z" />
<glyph unicode="E" horiz-adv-x="909" d="M164 0v1430h606v-119h-479v-508h457v-119h-457v-565h502v-119h-629z" />
<glyph unicode="F" horiz-adv-x="833" d="M164 0v1430h584v-119h-457v-508h434v-119h-434v-684h-127z" />
<glyph unicode="G" horiz-adv-x="1214" d="M104 729q0 139 41.5 266.5t118 228t196 160.5t265.5 60q78 0 169 -24t130 -46l-6 -139q-43 34 -133 62t-168 28q-65 0 -128.5 -19t-127.5 -65t-112.5 -113.5t-78.5 -174t-30 -236.5q0 -83 15 -164.5t51.5 -164t91 -144.5t141.5 -101t196 -39q116 0 197 43v502h-256v119 h383v-705q-143 -77 -330 -77q-104 0 -192.5 27t-151.5 72.5t-112.5 107.5t-80.5 129t-51.5 141t-28.5 139t-8 127z" />
<glyph unicode="H" horiz-adv-x="1138" d="M164 0v1430h127v-627h557v627h127v-1430h-127v684h-557v-684h-127z" />
<glyph unicode="I" horiz-adv-x="454" d="M164 0v1430h127v-1430h-127z" />
<glyph unicode="J" horiz-adv-x="606" d="M43 0v135q57 -22 96 -22q36 0 64 9t46.5 23t31 38t19.5 45t10.5 54.5t4 56t0.5 58.5v1033h127v-1037q0 -71 -5.5 -124.5t-24.5 -109t-50.5 -91.5t-87 -59t-131.5 -23q-37 0 -100 14z" />
<glyph unicode="K" horiz-adv-x="1024" d="M164 0v1430h127v-627h4l516 627h156l-572 -680l619 -750h-168l-551 700h-4v-700h-127z" />
<glyph unicode="L" horiz-adv-x="796" d="M164 0v1430h127v-1311h465v-119h-592z" />
<glyph unicode="M" horiz-adv-x="1515" d="M164 0v1430h194l398 -1242h4l397 1242h195v-1430h-119v1311h-4l-422 -1311h-96l-424 1311h-4v-1311h-119z" />
<glyph unicode="N" horiz-adv-x="1214" d="M164 0v1430h164l600 -1270h4v1270h119v-1430h-164l-600 1262h-4v-1262h-119z" />
<glyph unicode="O" horiz-adv-x="1216" d="M104 715q0 34 0.5 59t5 83t13 103.5t26 109t41.5 112t63.5 100.5t87.5 85.5t117 55t150 21.5t150 -21.5t117 -55t87.5 -85.5t63.5 -100.5t41.5 -112t26 -109t13 -103.5t5 -83t0.5 -59t-0.5 -59t-5 -83t-13 -103.5t-26 -109t-41.5 -112t-63.5 -100.5t-87.5 -85.5t-117 -55 t-150 -21.5t-150 21.5t-117 55t-87.5 85.5t-63.5 100.5t-41.5 112t-26 109t-13 103.5t-5 83t-0.5 59zM240 715q0 -30 0.5 -51t3.5 -71t9 -87.5t19 -91t30.5 -93.5t46 -83t64 -70.5t86 -45.5t109.5 -18q76 0 136.5 29t98 71t65 106t40.5 115.5t20 120t8 99t1 70.5 q0 30 -0.5 51.5t-4 70.5t-9.5 87t-18.5 91t-30.5 93.5t-46.5 83t-64 70t-86 45.5t-109.5 18q-76 0 -136.5 -29t-98 -71t-65 -106t-40 -115t-19.5 -119.5t-8 -98.5t-1 -71z" />
<glyph unicode="P" horiz-adv-x="948" d="M164 0v1430h268q436 0 436 -404q0 -89 -24 -160t-63 -115.5t-92 -74t-107.5 -41.5t-112.5 -12h-178v-623h-127zM291 741h129q152 0 232.5 64t80.5 221q0 81 -25 138.5t-56 85.5t-84.5 42.5t-84.5 16.5t-82 2h-110v-570z" />
<glyph unicode="Q" horiz-adv-x="1216" d="M104 715q0 34 0.5 59t5 83t13 103.5t26 109t41.5 112t63.5 100.5t87.5 85.5t117 55t150 21.5t150 -21.5t117 -55t87.5 -85.5t63.5 -100.5t41.5 -112t26 -109t13 -103.5t5 -83t0.5 -59q0 -37 -0.5 -65t-6.5 -92.5t-16.5 -115.5t-33 -119t-53.5 -119t-81 -99.5t-112 -75.5 l266 -291h-162l-229 256q-4 0 -29.5 -4t-46.5 -4q-81 0 -150 21.5t-117 55t-87.5 85.5t-63.5 100.5t-41.5 112t-26 109t-13 103.5t-5 83t-0.5 59zM240 715q0 -30 0.5 -51t3.5 -71t9 -87.5t19 -91t30.5 -93.5t46 -83t64 -70.5t86 -45.5t109.5 -18q76 0 136.5 29t98 71t65 106 t40.5 115.5t20 120t8 99t1 70.5q0 30 -0.5 51.5t-4 70.5t-9.5 87t-18.5 91t-30.5 93.5t-46.5 83t-64 70t-86 45.5t-109.5 18q-76 0 -136.5 -29t-98 -71t-65 -106t-40 -115t-19.5 -119.5t-8 -98.5t-1 -71z" />
<glyph unicode="R" horiz-adv-x="1024" d="M164 0v1430h330q180 0 278 -101t98 -264q0 -87 -26 -153t-70 -104t-88.5 -58.5t-95.5 -30.5v-4q108 -21 145 -123l215 -592h-135l-174 489q-35 100 -74 138.5t-114 38.5h-162v-666h-127zM291 784h174q52 0 95 13.5t70.5 33.5t48 48.5t31 54t16.5 53.5t7.5 43.5t1.5 28.5 q0 252 -278 252h-166v-527z" />
<glyph unicode="S" horiz-adv-x="872" d="M104 1098q0 65 16.5 118.5t42.5 88.5t62 62t70 41t72 22.5t63 11t47 2.5q21 0 41.5 -1.5t37 -3.5t35 -6t29.5 -7t27 -8t22 -7t19 -7t14 -5l-6 -144q-36 21 -61 33.5t-71 24.5t-95 12q-27 0 -55.5 -5.5t-60.5 -20.5t-56.5 -37.5t-40.5 -60.5t-16 -85q0 -41 9.5 -76 t23 -59.5t42.5 -53t52 -47t69 -51.5q63 -46 99 -73.5t77 -61.5t62 -58t42.5 -54t30.5 -59t15 -64t6 -78q0 -178 -108 -286.5t-275 -108.5q-165 0 -270 67l8 148q45 -40 101.5 -63.5t89.5 -28.5t61 -5q65 0 114.5 22t75.5 53t42.5 70t21 65.5t4.5 47.5q0 41 -7 75t-26 64.5 t-37 53t-55.5 52.5t-64.5 49t-81 55q-149 101 -203.5 183t-54.5 204z" />
<glyph unicode="T" horiz-adv-x="872" d="M41 1311v119h790v-119h-331v-1311h-127v1311h-332z" />
<glyph unicode="U" horiz-adv-x="1175" d="M164 526v904h127v-902q0 -71 6 -127t25 -114t50.5 -96.5t86.5 -62.5t129 -24q77 0 133.5 26.5t87 66t48.5 100t23 112.5t5 119v902h127v-904q0 -89 -12 -165t-42 -147t-77 -120t-121.5 -78.5t-171.5 -29.5t-171 27t-121.5 74t-77.5 116.5t-42 148t-12 174.5z" />
<glyph unicode="V" horiz-adv-x="1062" d="M33 1430h135l350 -1254h4l381 1254h127l-450 -1430h-119z" />
<glyph unicode="W" horiz-adv-x="1593" d="M25 1430h135l256 -1278h4l297 1278h174l268 -1278h4l279 1278h127l-330 -1430h-160l-280 1286h-4l-303 -1286h-150z" />
<glyph unicode="X" horiz-adv-x="1062" d="M20 0l449 758l-393 672h151l326 -570l332 570h135l-399 -672l421 -758h-151l-348 649l-371 -649h-152z" />
<glyph unicode="Y" horiz-adv-x="1024" d="M88 1430h135l291 -693l287 693h135l-361 -809v-621h-126v621z" />
<glyph unicode="Z" horiz-adv-x="909" d="M74 0v127l612 1184h-592v119h727v-123l-614 -1188h629v-119h-762z" />
<glyph unicode="[" horiz-adv-x="530" d="M160 -287v1835h260v-94h-150v-1647h150v-94h-260z" />
<glyph unicode="\" horiz-adv-x="530" d="M23 1444h102l383 -1458h-102z" />
<glyph unicode="]" horiz-adv-x="530" d="M111 -193h149v1647h-149v94h260v-1835h-260v94z" />
<glyph unicode="^" horiz-adv-x="1228" d="M90 502l473 928h103l473 -928h-119l-406 801l-405 -801h-119z" />
<glyph unicode="_" horiz-adv-x="1024" d="M0 -154h1024v-102h-1024v102z" />
<glyph unicode="`" horiz-adv-x="380" d="M-14 1491h143l156 -291h-103z" />
<glyph unicode="a" horiz-adv-x="909" d="M84 289q0 69 21 124t52 90t79.5 60t89.5 37.5t97.5 19.5t88.5 8t76 1h76q0 29 -0.5 46t-2.5 47t-5.5 48.5t-11 45t-18 43t-27.5 35.5t-38 29.5t-50.5 17.5t-64.5 7q-132 0 -262 -108l-18 127q61 33 95 49t86 29.5t106 13.5q321 0 321 -346v-480q0 -77 12 -233h-106 l-8 150h-4q-54 -87 -123 -125.5t-170 -38.5q-122 0 -206.5 88t-84.5 215zM211 289q0 -73 51.5 -133t140.5 -60q23 0 49 4t66 22.5t70.5 49t53 90.5t22.5 141v123q-195 0 -270 -16q-139 -29 -171 -135q-12 -37 -12 -86z" />
<glyph unicode="b" horiz-adv-x="948" d="M123 0q8 180 8 346v1190h119v-627h4q48 75 110.5 112.5t153.5 37.5q75 0 136 -33t99 -84.5t64 -119.5t36.5 -132.5t10.5 -128.5q0 -31 -1 -58t-4.5 -72.5t-10 -83.5t-19.5 -85t-30.5 -84.5t-44.5 -74.5t-60.5 -61.5t-80 -40t-101.5 -15.5q-92 0 -152.5 38t-121.5 119h-5 v-143h-110zM242 510q0 -86 12.5 -155.5t40 -130t80 -94.5t125.5 -34q49 0 88 20t63 48.5t42 73t26 80t12.5 83.5t5 69.5t0.5 51.5q0 426 -239 426q-53 0 -94.5 -18t-68 -43.5t-45.5 -68t-28 -76.5t-14 -85.5t-5.5 -77.5t-0.5 -69z" />
<glyph unicode="c" horiz-adv-x="757" d="M84 518q0 162 46.5 282t145 189.5t240.5 69.5q104 0 195 -37l-6 -135q-64 53 -189 53q-62 0 -115.5 -22t-96.5 -67t-68 -121.5t-25 -176.5q0 -109 23.5 -193t57.5 -131t80.5 -76.5t85 -39t77.5 -9.5q44 0 98 14t78 42l10 -135q-86 -39 -203 -39q-85 0 -162 33.5 t-138.5 97t-97.5 167.5t-36 234z" />
<glyph unicode="d" horiz-adv-x="948" d="M84 561q0 64 10.5 128.5t36.5 132.5t64 119.5t99 84.5t136 33q97 0 160 -37.5t104 -112.5h4v627h119v-1190q0 -166 8 -346h-110v143h-4q-65 -82 -124.5 -119.5t-150.5 -37.5q-55 0 -101.5 15.5t-80 40t-60.5 61.5t-44.5 74.5t-30.5 84.5t-19.5 85t-10 83.5t-4.5 72.5 t-1 58zM211 522q0 -30 0.5 -51.5t5 -69.5t13 -83.5t26 -80t42 -73t63.5 -48.5t88 -20q73 0 125.5 34t80 94.5t40 130t12.5 155.5q0 43 -0.5 69t-5.5 77.5t-14 85.5t-28 76.5t-45.5 68t-68 43.5t-94.5 18q-86 0 -141 -57.5t-77 -149.5t-22 -219z" />
<glyph unicode="e" horiz-adv-x="872" d="M84 522q0 141 32.5 248.5t87.5 168.5t118.5 90.5t132.5 29.5q63 0 113.5 -19t85 -50t59.5 -78.5t39.5 -95t22.5 -109t10.5 -112t2.5 -112.5h-577q0 -79 14.5 -143t35.5 -103.5t52 -68t56.5 -42t58 -21t46.5 -8.5t32 -1q53 0 117.5 24t107.5 62l6 -137q-107 -59 -243 -59 q-66 0 -122 15.5t-95.5 39.5t-71 61.5t-51.5 72.5t-34 81.5t-21 80t-10.5 76.5t-4 62.5t-0.5 46.5zM211 594h451q0 99 -19.5 171t-51.5 110t-67.5 55.5t-74.5 17.5q-58 0 -105 -36t-75 -91t-43 -114.5t-15 -112.5z" />
<glyph unicode="f" horiz-adv-x="530" d="M31 934v110h162v224q0 51 6 91.5t23 79.5t45 65t74 41.5t108 15.5q35 0 90 -11v-118q-45 18 -95 18q-133 0 -133 -160v-246h185v-110h-185v-934h-118v934h-162z" />
<glyph unicode="g" horiz-adv-x="948" d="M84 483q0 42 1.5 78.5t9 98.5t20.5 111.5t39.5 105.5t62.5 94t92.5 63t126.5 25q96 0 162 -42t113 -126h4v153h110q-8 -180 -8 -346v-673q0 -480 -391 -480q-78 0 -131 11.5t-166 46.5l8 133q69 -40 149 -60t138 -20q53 0 96 14t71 35.5t49 53t31.5 61t17 66t8 61.5 t1.5 53v143h-4q-47 -80 -109.5 -118.5t-154.5 -38.5q-75 0 -136 33t-99 84.5t-64 119t-36.5 132t-10.5 128.5zM211 522q0 -127 22 -219t77 -149.5t141 -57.5q72 0 122.5 30.5t79.5 90.5t41.5 137t12.5 181q0 68 -7 125.5t-25.5 111.5t-47 92t-74 61t-104.5 23q-49 0 -88 -20 t-63.5 -48.5t-42 -73t-26 -80t-13 -83.5t-5 -69.5t-0.5 -51.5z" />
<glyph unicode="h" horiz-adv-x="948" d="M139 0v1536h119v-645h4q10 23 26.5 46.5t46.5 53.5t78.5 49t106.5 19q59 0 106.5 -17t77 -41.5t51 -61.5t31.5 -67.5t16 -70.5t6.5 -58.5t0.5 -42.5v-700h-119v705q0 23 -0.5 36.5t-4 42.5t-10.5 47.5t-21 43t-34 38.5t-52 24.5t-72 10.5q-106 0 -172 -87t-66 -212v-649 h-119z" />
<glyph unicode="i" horiz-adv-x="417" d="M137 1276v184h144v-184h-144zM150 0v1044h118v-1044h-118z" />
<glyph unicode="j" horiz-adv-x="417" d="M-18 -324q28 -12 55 -12q26 0 40.5 2.5t34 14.5t29 42.5t9.5 79.5v1241h118v-1224q0 -41 -2 -70t-14 -71.5t-32.5 -68.5t-62 -45.5t-98.5 -19.5q-42 0 -77 13v118zM137 1276v184h144v-184h-144z" />
<glyph unicode="k" horiz-adv-x="872" d="M143 0v1536h119v-911l395 419h152l-442 -462l483 -582h-160l-424 530h-4v-530h-119z" />
<glyph unicode="l" horiz-adv-x="417" d="M150 0v1536h118v-1536h-118z" />
<glyph unicode="m" horiz-adv-x="1404" d="M131 1044h111q6 -68 8 -153h4q30 69 90.5 118.5t151.5 49.5q49 0 89 -13t62 -28t42.5 -43.5t27 -42t18.5 -41.5q106 168 260 168q76 0 131 -29.5t84.5 -80t42.5 -107.5t13 -123v-719h-119v705q0 23 -0.5 37t-3.5 42t-9 47t-18.5 43t-30 39t-45.5 25t-63 10 q-71 -1 -120.5 -40.5t-72 -100.5t-22.5 -137v-670h-119v727q0 102 -42.5 161.5t-115.5 59.5q-99 0 -163 -87.5t-64 -211.5v-649h-119v721q0 62 -3.5 174t-4.5 149z" />
<glyph unicode="n" horiz-adv-x="948" d="M131 1044h111q6 -68 8 -153h4q12 22 21 36t33.5 42t50.5 45t69 31t92 14q59 0 106.5 -17t77 -41.5t51 -61.5t31.5 -67.5t16 -70.5t6.5 -58.5t0.5 -42.5v-700h-119v705q0 23 -0.5 36.5t-4 42.5t-10.5 47.5t-21 43t-34 38.5t-52 24.5t-72 10.5q-106 0 -172 -87t-66 -212 v-649h-119v721q0 62 -3.5 174t-4.5 149z" />
<glyph unicode="o" horiz-adv-x="950" d="M84 522q0 106 19 196t61.5 169.5t122 125.5t188.5 46t188.5 -46t122 -125.5t61.5 -169.5t19 -196q0 -83 -11 -156.5t-39 -144.5t-71 -122t-112.5 -82t-157.5 -31t-157.5 31t-112.5 82t-71 122t-39 144.5t-11 156.5zM211 522q0 -29 0.5 -51t5.5 -69.5t14.5 -83.5t29 -80 t46.5 -73t70.5 -49t97.5 -20t97.5 20t70.5 49t46.5 73t29 80t14.5 83.5t5.5 69.5t0.5 51t-0.5 51t-5.5 69.5t-14.5 83.5t-29 80t-46.5 73t-70.5 49t-97.5 20t-97.5 -20t-70.5 -49t-46.5 -73t-29 -80t-14.5 -83.5t-5.5 -69.5t-0.5 -51z" />
<glyph unicode="p" horiz-adv-x="948" d="M123 1044h110v-153h5q108 168 274 168q70 0 126.5 -24.5t92 -61.5t62.5 -89.5t40 -98t20.5 -98t9 -79.5t1.5 -51q0 -92 -11.5 -174t-38.5 -155.5t-66 -126.5t-98 -84t-132 -31q-187 0 -264 145h-4v-573h-119v1140q0 166 -8 346zM242 535q0 -43 0.5 -69t5.5 -77.5 t14 -85.5t28 -77t45.5 -68.5t68 -43.5t94.5 -18q239 0 239 426q0 30 -0.5 51.5t-5 69.5t-12.5 83.5t-26 80t-42 73t-63 48.5t-88 20q-59 0 -104.5 -23t-74 -61t-47 -92t-25.5 -111.5t-7 -125.5z" />
<glyph unicode="q" horiz-adv-x="948" d="M84 483q0 42 1.5 78.5t9 98.5t20.5 111.5t39.5 105.5t62.5 94t92.5 63t126.5 25q96 0 162 -42t113 -126h4v153h110q-8 -180 -8 -346v-1140h-119v585h-4q-47 -80 -109.5 -118.5t-154.5 -38.5q-75 0 -136 33t-99 84.5t-64 119t-36.5 132t-10.5 128.5zM211 522 q0 -127 22 -219t77 -149.5t141 -57.5q72 0 122.5 30.5t79.5 90.5t41.5 137t12.5 181q0 68 -7 125.5t-25.5 111.5t-47 92t-74 61t-104.5 23q-49 0 -88 -20t-63.5 -48.5t-42 -73t-26 -80t-13 -83.5t-5 -69.5t-0.5 -51.5z" />
<glyph unicode="r" horiz-adv-x="569" d="M131 1044h111q1 -36 4.5 -99t3.5 -66h4q53 105 118 142.5t160 37.5v-127q-142 0 -208 -65.5t-66 -209.5v-657h-119v721q0 62 -3.5 174t-4.5 149z" />
<glyph unicode="s" horiz-adv-x="720" d="M74 35l16 133q33 -24 103 -48t135 -24q83 0 137.5 53.5t54.5 126.5q0 37 -11 65t-37 52t-56 42t-82 44q-141 70 -193.5 128t-52.5 163q0 71 28 128t73.5 91t98.5 52t107 18q92 0 193 -31l-17 -123q-110 43 -178 43q-85 0 -131.5 -51.5t-46.5 -114.5q0 -18 1.5 -32t7 -28 t10 -23t18.5 -21t22.5 -19t32 -21.5t38 -22.5t48.5 -27q119 -65 157 -95q89 -71 96 -182q1 -11 1 -22q0 -138 -87 -220.5t-222 -82.5q-134 0 -264 49z" />
<glyph unicode="t" horiz-adv-x="569" d="M37 934v110h156v209l118 37v-246h213v-110h-213v-680q0 -75 23.5 -116.5t91.5 -41.5q13 0 25 1t19.5 2.5t17 4.5t13 4.5t12.5 5.5t11 5v-119q-41 -14 -137 -14q-55 0 -94.5 19.5t-60.5 54.5t-30 74.5t-9 86.5v713h-156z" />
<glyph unicode="u" horiz-adv-x="948" d="M139 315v729h119v-704q0 -23 0.5 -37t4 -42.5t10.5 -47.5t21.5 -43t34.5 -38.5t52 -25t72 -10.5q106 0 171.5 87t65.5 212v649h119v-720q0 -62 3.5 -174.5t4.5 -149.5h-110q-7 84 -9 154h-4q-5 -20 -23 -46t-48.5 -54.5t-82 -48t-112.5 -19.5q-82 0 -140.5 27.5 t-89.5 75.5t-45 103.5t-14 122.5z" />
<glyph unicode="v" horiz-adv-x="798" d="M23 1044h127l247 -909h4l256 909h119l-305 -1044h-143z" />
<glyph unicode="w" horiz-adv-x="1327" d="M23 1044h127l219 -917h4l211 917h151l230 -917h4l217 917h119l-273 -1044h-147l-226 909h-4l-213 -909h-139z" />
<glyph unicode="x" horiz-adv-x="796" d="M23 0l294 563l-270 481h143l207 -389l215 389h136l-283 -489l309 -555h-143l-242 459l-231 -459h-135z" />
<glyph unicode="y" horiz-adv-x="757" d="M20 1044h127l234 -868h4l233 868h119l-342 -1239q-8 -29 -12 -42t-12 -38.5t-13.5 -38t-15 -33.5t-18.5 -31.5t-22 -25.5t-27 -22t-32 -15t-39 -11t-46 -3q-33 0 -80 13l6 120q31 -22 84 -22q73 0 106 121l54 198z" />
<glyph unicode="z" horiz-adv-x="757" d="M61 0v119l500 815h-483v110h610v-118l-500 -815h508v-111h-635z" />
<glyph unicode="{" horiz-adv-x="530" d="M70 584v94q71 0 97 55t26 209v369q0 125 50.5 181t157.5 56h93v-94h-62q-66 0 -97.5 -33.5t-31.5 -111.5v-432q0 -113 -33.5 -169.5t-97.5 -74.5v-4q64 -18 97.5 -74.5t33.5 -169.5v-432q0 -78 31.5 -112t97.5 -34h62v-94h-93q-107 0 -157.5 56.5t-50.5 181.5v368 q0 154 -26 209.5t-97 55.5z" />
<glyph unicode="|" horiz-adv-x="454" d="M176 -512v2048h103v-2048h-103z" />
<glyph unicode="}" horiz-adv-x="530" d="M37 -193h61q66 0 97.5 34t31.5 112v432q0 113 33.5 169.5t97.5 74.5v4q-64 18 -97.5 74.5t-33.5 169.5v432q0 78 -31.5 111.5t-97.5 33.5h-61v94h92q107 0 158 -56.5t51 -180.5v-369q0 -154 26 -209t97 -55v-94q-71 0 -97 -55.5t-26 -209.5v-368q0 -125 -51 -181.5 t-158 -56.5h-92v94z" />
<glyph unicode="~" horiz-adv-x="1228" d="M141 463q92 176 256 176q96 0 228 -66q146 -73 209 -73q29 0 55 11.5t49.5 36t38 44.5t37.5 55l73 -74q-23 -32 -38.5 -52t-41 -46.5t-49.5 -41t-57 -25.5t-70 -11q-52 0 -99 17t-109 51q-128 72 -220 72q-64 0 -106.5 -39.5t-81.5 -108.5z" />
<glyph unicode="&#xa1;" horiz-adv-x="720" d="M285 -385l20 1077h111l20 -1077h-151zM285 860v184h151v-184h-151z" />
<glyph unicode="&#xa2;" d="M150 518q0 162 46.5 282t145 189.5t240.5 69.5h36l35 229h86l-37 -239q52 -11 74 -27l-8 -135q-39 30 -86 41l-119 -819q30 -5 37 -5q44 0 98 14t78 42l10 -135q-26 -19 -88.5 -29t-113.5 -10q-7 0 -20.5 1t-20.5 1l-37 -250h-86l41 268q-138 41 -224.5 172t-86.5 340z M276 553q0 -96 17.5 -172t48 -125t64 -78.5t73.5 -46.5l121 809h-16q-63 0 -117 -22t-97.5 -67t-68.5 -121.5t-25 -176.5z" />
<glyph unicode="&#xa3;" d="M129 0v119h145v588h-145v110h145q0 196 11.5 286t50.5 157q53 93 142 138.5t184 45.5q59 0 125.5 -13.5t109.5 -39.5l-20 -129q-35 27 -93.5 45t-115.5 18q-61 0 -109 -21.5t-77 -55.5t-48 -80t-26 -90.5t-7 -92.5v-168h328v-110h-328v-588h476v-119h-748z" />
<glyph unicode="&#xa4;" d="M49 340l96 100q-96 113 -96 275q0 161 96 274l-96 101l68 67l98 -98q119 98 277 98q157 0 276 -98l98 98l68 -67l-96 -101q96 -113 96 -274q0 -162 -96 -275l96 -100l-68 -68l-98 99q-120 -99 -276 -99q-157 0 -277 99l-98 -99zM152 715q0 -141 99.5 -240.5t240.5 -99.5 t240 99.5t99 240.5t-99 240.5t-240 99.5t-240.5 -99.5t-99.5 -240.5z" />
<glyph unicode="&#xa5;" d="M68 1430h135l289 -695l288 695h135l-335 -756h239v-86h-264v-187h264v-86h-264v-315h-127v315h-264v86h264v187h-264v86h239z" />
<glyph unicode="&#xa6;" horiz-adv-x="454" d="M176 -358v716h103v-716h-103zM176 666v716h103v-716h-103z" />
<glyph unicode="&#xa7;" d="M162 -193l22 136q40 -29 114.5 -59.5t143.5 -30.5q58 0 109.5 19.5t88 66.5t36.5 114q0 25 -5.5 46.5t-12 37.5t-24 34t-27.5 27.5t-38 27.5t-40 25l-48 28q-59 33 -95 55t-77 54.5t-63.5 63.5t-37.5 73t-15 91q0 46 13.5 89.5t30.5 72t45.5 59t43.5 43.5t39 31 q-28 17 -44 30t-42 42t-39 71t-13 95q0 48 19 97.5t56 95t103 74t150 28.5q119 0 236 -55l-21 -127l-14 6q-41 20 -65.5 30.5t-59.5 18.5t-70 8q-98 0 -152.5 -47t-54.5 -119q0 -22 5 -41.5t10.5 -34t23.5 -33.5t29 -30t43.5 -34t50 -34.5t64.5 -42.5q67 -42 100.5 -66.5 t71.5 -64t53.5 -85t15.5 -105.5q0 -162 -151 -285q27 -23 44 -40.5t41 -49t36 -72t12 -88.5q0 -43 -12 -86t-40 -85.5t-68.5 -75t-102.5 -52.5t-138 -20q-54 0 -114 14.5t-84.5 24.5t-81.5 34zM311 641q0 -34 9.5 -61.5t37.5 -63t88 -75.5t152 -85q36 44 54 70t34 67.5 t16 84.5q0 143 -264 278q-26 -22 -40.5 -35.5t-38.5 -42t-36 -63t-12 -74.5z" />
<glyph unicode="&#xa8;" horiz-adv-x="380" d="M-23 1257v201h119v-201h-119zM285 1257v201h118v-201h-118z" />
<glyph unicode="&#xa9;" horiz-adv-x="1638" d="M90 715q0 148 57.5 283t155.5 233t233 155.5t283 57.5t283 -57.5t233 -155.5t155.5 -233t57.5 -283t-57.5 -283t-155.5 -233t-233 -155.5t-283 -57.5t-283 57.5t-233 155.5t-155.5 233t-57.5 283zM193 715q0 -174 84 -320.5t228 -230.5t314 -84q128 0 244 50t200 134.5 t133.5 202.5t49.5 248t-49.5 248t-133.5 202.5t-200 134.5t-244 50q-170 0 -314 -84t-228 -230.5t-84 -320.5zM408 715q0 199 112.5 323.5t306.5 124.5q142 0 242.5 -78.5t120.5 -216.5h-103q-18 89 -87.5 145t-172.5 56q-149 0 -233 -99t-84 -255q0 -145 87.5 -250 t229.5 -105q105 0 175 58.5t85 150.5h103q-33 -136 -130 -219.5t-233 -83.5q-186 0 -302.5 128.5t-116.5 320.5z" />
<glyph unicode="&#xaa;" horiz-adv-x="591" d="M43 981q0 42 13.5 75.5t33.5 54.5t52.5 36.5t59.5 23t65.5 12t61 5t54.5 0.5h49q0 28 -1 44.5t-8.5 45.5t-21 45.5t-42 29.5t-68.5 13t-82 -16.5t-61.5 -29.5t-26.5 -20l-12 89q56 29 95 42t91 13q46 0 82.5 -9.5t59.5 -23t39.5 -35t24 -38.5t12 -40t5 -33.5t0.5 -25.5 v-289q0 -45 8 -139h-84l-6 90h-4q-63 -98 -176 -98q-84 0 -148.5 48t-64.5 130zM137 993q0 -41 34 -76.5t91 -35.5q15 0 32 2.5t43 13t46 27.5t34.5 50.5t14.5 78.5v65h-7h-52t-47.5 -1t-46 -3.5t-39 -6.5t-35.5 -10.5t-27.5 -15.5t-23 -21.5t-12.5 -29t-5 -37.5z" />
<glyph unicode="&#xab;" d="M176 541l236 413h110l-219 -413l219 -430h-110zM461 541l235 413h111l-219 -413l219 -430h-111z" />
<glyph unicode="&#xac;" horiz-adv-x="1228" d="M96 666v102h1037v-547h-103v445h-934z" />
<glyph unicode="&#xad;" horiz-adv-x="606" d="M94 512v119h418v-119h-418z" />
<glyph unicode="&#xae;" horiz-adv-x="1638" d="M90 715q0 148 57.5 283t155.5 233t233 155.5t283 57.5t283 -57.5t233 -155.5t155.5 -233t57.5 -283t-57.5 -283t-155.5 -233t-233 -155.5t-283 -57.5t-283 57.5t-233 155.5t-155.5 233t-57.5 283zM193 715q0 -174 84 -320.5t228 -230.5t314 -84q128 0 244 50t200 134.5 t133.5 202.5t49.5 248t-49.5 248t-133.5 202.5t-200 134.5t-244 50q-170 0 -314 -84t-228 -230.5t-84 -320.5zM535 297v836h321q270 0 270 -232q0 -104 -57.5 -161t-150.5 -72l245 -371h-110l-246 371h-178v-371h-94zM629 754h207q93 0 144.5 32.5t51.5 114.5 q0 146 -196 146h-207v-293z" />
<glyph unicode="&#xaf;" horiz-adv-x="380" d="M-53 1298v95h487v-95h-487z" />
<glyph unicode="&#xb0;" horiz-adv-x="819" d="M113 1147q0 123 87 210t210 87t210 -87t87 -210t-87 -210t-210 -87t-210 87t-87 210zM207 1147q0 -85 59 -144t144 -59t143.5 59t58.5 144t-58.5 144t-143.5 59t-144 -59t-59 -144z" />
<glyph unicode="&#xb1;" horiz-adv-x="1228" d="M96 0v102h1037v-102h-1037zM96 561v103h467v372h103v-372h467v-103h-467v-373h-103v373h-467z" />
<glyph unicode="&#xb2;" horiz-adv-x="638" d="M86 578v75l70 80q134 151 186 225q104 149 104 252q5 64 -32 106t-107 42q-42 0 -92.5 -20t-83.5 -48l-12 99q72 55 196 55q62 0 109 -20t73 -53t39 -71.5t13 -80.5q0 -46 -18.5 -100t-41 -96t-61 -94.5t-60 -79t-55.5 -65.5l-108 -120h348v-86h-467z" />
<glyph unicode="&#xb3;" horiz-adv-x="638" d="M80 604l6 96q86 -45 164 -45q87 0 147 43t60 127q0 75 -58.5 115.5t-146.5 40.5h-72v86q53 0 95 5.5t84.5 20.5t66 47t23.5 79q0 11 -2 23.5t-12 35t-27.5 39t-53.5 29t-84 12.5q-78 0 -153 -49l-6 94q25 16 80 28.5t90 12.5q74 0 129.5 -21.5t84.5 -56t42.5 -69.5 t13.5 -70q0 -149 -166 -193v-4q65 -9 119.5 -66.5t54.5 -148.5q0 -122 -80 -184t-229 -62q-107 0 -170 35z" />
<glyph unicode="&#xb4;" horiz-adv-x="380" d="M96 1200l156 291h143l-196 -291h-103z" />
<glyph unicode="&#xb5;" horiz-adv-x="948" d="M139 -442v1486h119v-704q0 -23 0.5 -37t4 -42.5t10.5 -47.5t21.5 -43t34.5 -38.5t52 -25t72 -10.5q106 0 171.5 87t65.5 212v649h119v-720q0 -62 3.5 -174.5t4.5 -149.5h-110q-7 84 -9 154h-4q-5 -20 -23 -46t-48.5 -54.5t-82 -48t-112.5 -19.5q-134 0 -166 63h-4v-491 h-119z" />
<glyph unicode="&#xb6;" d="M61 1042q0 186 116 287t325 101h379v-1682h-103v1587h-205v-1587h-102v920q-175 3 -292.5 108.5t-117.5 265.5z" />
<glyph unicode="&#xb7;" horiz-adv-x="491" d="M133 631q0 46 33.5 79t79.5 33t79 -33t33 -79t-33 -79.5t-79 -33.5t-79.5 33.5t-33.5 79.5z" />
<glyph unicode="&#xb8;" horiz-adv-x="380" d="M0 -377l20 58q75 -26 111 -28q12 -1 25 -1q129 0 129 94q0 40 -30.5 63t-70.5 23q-9 0 -18.5 -1.5t-20.5 -5t-17.5 -6l-19.5 -7.5t-18 -7l-27 29l117 166h74l-88 -113l4 -4q37 11 61 11q68 0 116 -36.5t48 -101.5q0 -57 -34 -96t-81.5 -54.5t-103.5 -15.5q-127 0 -176 33 z" />
<glyph unicode="&#xb9;" horiz-adv-x="638" d="M123 1286l166 158h94v-866h-94v763l-121 -129z" />
<glyph unicode="&#xba;" horiz-adv-x="638" d="M53 1124q0 63 12.5 116.5t41 101t82.5 75t130 27.5t130.5 -27.5t83 -75t41 -101t12.5 -116.5q0 -50 -7.5 -94t-26 -87t-48 -73t-77 -48.5t-108.5 -18.5q-76 0 -130 27t-82.5 75t-41 101.5t-12.5 117.5zM147 1124q0 -18 1 -32.5t5 -47t15.5 -57.5t29 -51t49 -40.5 t72.5 -14.5t72.5 14.5t49 40.5t29 51t16 57.5t5.5 47.5t1 32t-1 31.5t-5.5 46.5t-16 57.5t-29 51.5t-49 40.5t-72.5 14.5q-35 0 -63.5 -12t-46 -29t-30.5 -43t-19 -47t-9 -47.5t-3.5 -38t-0.5 -25.5z" />
<glyph unicode="&#xbb;" d="M176 111l219 413l-219 430h111l235 -430l-235 -413h-111zM461 111l219 413l-219 430h110l236 -430l-236 -413h-110z" />
<glyph unicode="&#xbc;" horiz-adv-x="1476" d="M123 1286l166 158h94v-866h-94v763l-121 -129zM301 -68l641 1565h111l-641 -1565h-111zM797 197v86l344 575h119v-575h94v-86h-94v-197h-95v197h-368zM883 283h282v465h-4z" />
<glyph unicode="&#xbd;" horiz-adv-x="1476" d="M123 1286l166 158h94v-866h-94v763l-121 -129zM326 -68l641 1565h110l-641 -1565h-110zM887 0v76l69 80q131 148 182 219q109 153 109 258q5 64 -32 105.5t-107 41.5q-42 0 -92.5 -19.5t-83.5 -47.5l-12 98q72 55 196 55q62 0 109 -20t73 -53t39 -71.5t13 -80.5 q0 -57 -23.5 -120t-68 -127.5t-72.5 -100t-72 -86.5l-108 -121h348v-86h-467z" />
<glyph unicode="&#xbe;" horiz-adv-x="1476" d="M80 604l6 96q86 -45 164 -45q87 0 147 43t60 127q0 75 -58.5 115.5t-146.5 40.5h-72v86q53 0 95 5.5t84.5 20.5t66 47t23.5 79q0 11 -2 23.5t-12 35t-27.5 39t-53.5 29t-84 12.5q-78 0 -153 -49l-6 94q25 16 80 28.5t90 12.5q74 0 129.5 -21.5t84.5 -56t42.5 -69.5 t13.5 -70q0 -149 -166 -193v-4q65 -9 119.5 -66.5t54.5 -148.5q0 -122 -80 -184t-229 -62q-107 0 -170 35zM375 -68l641 1565h110l-641 -1565h-110zM840 197v86l344 575h119v-575h94v-86h-94v-197h-95v197h-368zM926 283h282v465h-4z" />
<glyph unicode="&#xbf;" horiz-adv-x="909" d="M139 -55q0 95 31 171t145 240q73 103 94 166t21 172h119q-7 -160 -27 -217t-111 -190l-18 -27q-71 -104 -95 -171.5t-24 -129.5q0 -106 62 -173t168 -67q108 0 213 68l10 -139q-117 -47 -221 -47q-79 0 -142.5 19t-104.5 51.5t-68.5 77.5t-39.5 93.5t-12 102.5zM422 860 v184h151v-184h-151z" />
<glyph unicode="&#xc0;" horiz-adv-x="1138" d="M27 0l475 1430h135l475 -1430h-135l-125 393h-569l-129 -393h-127zM319 512h494l-242 782h-4zM365 1780h143l156 -291h-103z" />
<glyph unicode="&#xc1;" horiz-adv-x="1138" d="M27 0l475 1430h135l475 -1430h-135l-125 393h-569l-129 -393h-127zM319 512h494l-242 782h-4zM475 1489l156 291h143l-196 -291h-103z" />
<glyph unicode="&#xc2;" horiz-adv-x="1138" d="M27 0l475 1430h135l475 -1430h-135l-125 393h-569l-129 -393h-127zM311 1489l199 291h119l198 -291h-118l-140 209l-139 -209h-119zM319 512h494l-242 782h-4z" />
<glyph unicode="&#xc3;" horiz-adv-x="1138" d="M27 0l475 1430h135l475 -1430h-135l-125 393h-569l-129 -393h-127zM295 1528q0 11 2.5 30t13 51t27.5 57.5t50.5 45t76.5 19.5q21 0 40.5 -6t34.5 -14t50 -28q73 -43 96 -43q27 0 49.5 29t22.5 72h86q0 -24 -8.5 -55.5t-25.5 -66t-49.5 -58t-74.5 -23.5q-59 0 -129 49 q-62 41 -92 41q-39 0 -61.5 -36.5t-22.5 -63.5h-86zM319 512h494l-242 782h-4z" />
<glyph unicode="&#xc4;" horiz-adv-x="1138" d="M27 0l475 1430h135l475 -1430h-135l-125 393h-569l-129 -393h-127zM319 512h494l-242 782h-4zM356 1546v201h119v-201h-119zM664 1546v201h118v-201h-118z" />
<glyph unicode="&#xc5;" horiz-adv-x="1138" d="M27 0l475 1430h135l475 -1430h-135l-125 393h-569l-129 -393h-127zM319 512h494l-242 782h-4zM371 1671q0 83 57.5 141t140.5 58t141 -58t58 -141t-58 -140.5t-141 -57.5t-140.5 57.5t-57.5 140.5zM440 1671q0 -54 37.5 -91.5t91.5 -37.5t91.5 37.5t37.5 91.5t-37.5 91.5 t-91.5 37.5t-91.5 -37.5t-37.5 -91.5z" />
<glyph unicode="&#xc6;" horiz-adv-x="1554" d="M27 0l731 1430h657v-119h-454v-508h432v-119h-432v-565h477v-119h-604v393h-463l-201 -393h-143zM428 512h406v815h-5z" />
<glyph unicode="&#xc7;" horiz-adv-x="1099" d="M117 723q0 114 21 217t68.5 196t117.5 160.5t174.5 107.5t232.5 40q143 0 240 -47l-6 -144q-32 27 -102 49.5t-142 22.5q-27 0 -58 -4t-78.5 -19t-90.5 -39.5t-88.5 -71t-78.5 -107.5t-54 -155.5t-21 -209.5q0 -142 33.5 -254.5t83.5 -178t115.5 -108.5t122.5 -58.5 t112 -15.5q51 0 96 9.5t70 20t76 34.5l6 -137q-125 -45 -244 -45h-21l-77 -99l4 -4q37 11 61 11q68 0 116 -36.5t48 -101.5q0 -57 -34 -96t-81.5 -54.5t-103.5 -15.5q-127 0 -176 33l20 58q4 -1 15 -5t14.5 -5t12.5 -4t13 -4l12 -3t12.5 -3t12 -2t13.5 -1.5t14 -1t16 -0.5 q129 0 129 94q0 40 -30 63t-70 23q-9 0 -18.5 -1.5t-20.5 -5t-17.5 -6l-19.5 -7.5t-18 -7l-27 29l111 158q-105 14 -191.5 60.5t-146 115.5t-100 158.5t-59.5 189t-19 207.5z" />
<glyph unicode="&#xc8;" horiz-adv-x="909" d="M164 0v1430h606v-119h-479v-508h457v-119h-457v-565h502v-119h-629zM291 1780h143l156 -291h-103z" />
<glyph unicode="&#xc9;" horiz-adv-x="909" d="M164 0v1430h606v-119h-479v-508h457v-119h-457v-565h502v-119h-629zM401 1489l156 291h143l-196 -291h-103z" />
<glyph unicode="&#xca;" horiz-adv-x="909" d="M164 0v1430h606v-119h-479v-508h457v-119h-457v-565h502v-119h-629zM238 1489l198 291h119l199 -291h-119l-139 209l-140 -209h-118z" />
<glyph unicode="&#xcb;" horiz-adv-x="909" d="M164 0v1430h606v-119h-479v-508h457v-119h-457v-565h502v-119h-629zM283 1546v201h118v-201h-118zM590 1546v201h119v-201h-119z" />
<glyph unicode="&#xcc;" horiz-adv-x="454" d="M23 1780h143l156 -291h-103zM164 0v1430h127v-1430h-127z" />
<glyph unicode="&#xcd;" horiz-adv-x="454" d="M133 1489l156 291h143l-196 -291h-103zM164 0v1430h127v-1430h-127z" />
<glyph unicode="&#xce;" horiz-adv-x="454" d="M-31 1489l199 291h119l198 -291h-118l-140 209l-139 -209h-119zM164 0v1430h127v-1430h-127z" />
<glyph unicode="&#xcf;" horiz-adv-x="454" d="M14 1546v201h119v-201h-119zM164 0v1430h127v-1430h-127zM322 1546v201h118v-201h-118z" />
<glyph unicode="&#xd0;" horiz-adv-x="1138" d="M25 698v86h139v646h186q355 0 527 -173t172 -522q0 -127 -24.5 -236.5t-77 -202t-129.5 -158t-187.5 -102t-245.5 -36.5h-221v698h-139zM291 119h131q234 0 362.5 161.5t128.5 434.5q0 57 -3 104t-15.5 111t-33 114t-59.5 102t-91.5 86.5t-132.5 56.5t-179 22h-108v-527 h364v-86h-364v-579z" />
<glyph unicode="&#xd1;" horiz-adv-x="1214" d="M164 0v1430h164l600 -1270h4v1270h119v-1430h-164l-600 1262h-4v-1262h-119zM334 1528q0 11 2.5 30t13 51t27.5 57.5t50.5 45t76.5 19.5q21 0 40.5 -6t34.5 -14t50 -28q73 -43 96 -43q27 0 49.5 29t22.5 72h86q0 -24 -8.5 -55.5t-25.5 -66t-49.5 -58t-74.5 -23.5 q-59 0 -129 49q-62 41 -92 41q-39 0 -61.5 -36.5t-22.5 -63.5h-86z" />
<glyph unicode="&#xd2;" horiz-adv-x="1216" d="M104 715q0 34 0.5 59t5 83t13 103.5t26 109t41.5 112t63.5 100.5t87.5 85.5t117 55t150 21.5t150 -21.5t117 -55t87.5 -85.5t63.5 -100.5t41.5 -112t26 -109t13 -103.5t5 -83t0.5 -59t-0.5 -59t-5 -83t-13 -103.5t-26 -109t-41.5 -112t-63.5 -100.5t-87.5 -85.5t-117 -55 t-150 -21.5t-150 21.5t-117 55t-87.5 85.5t-63.5 100.5t-41.5 112t-26 109t-13 103.5t-5 83t-0.5 59zM240 715q0 -30 0.5 -51t3.5 -71t9 -87.5t19 -91t30.5 -93.5t46 -83t64 -70.5t86 -45.5t109.5 -18q76 0 136.5 29t98 71t65 106t40.5 115.5t20 120t8 99t1 70.5 q0 30 -0.5 51.5t-4 70.5t-9.5 87t-18.5 91t-30.5 93.5t-46.5 83t-64 70t-86 45.5t-109.5 18q-76 0 -136.5 -29t-98 -71t-65 -106t-40 -115t-19.5 -119.5t-8 -98.5t-1 -71zM403 1780h144l155 -291h-102z" />
<glyph unicode="&#xd3;" horiz-adv-x="1216" d="M104 715q0 34 0.5 59t5 83t13 103.5t26 109t41.5 112t63.5 100.5t87.5 85.5t117 55t150 21.5t150 -21.5t117 -55t87.5 -85.5t63.5 -100.5t41.5 -112t26 -109t13 -103.5t5 -83t0.5 -59t-0.5 -59t-5 -83t-13 -103.5t-26 -109t-41.5 -112t-63.5 -100.5t-87.5 -85.5t-117 -55 t-150 -21.5t-150 21.5t-117 55t-87.5 85.5t-63.5 100.5t-41.5 112t-26 109t-13 103.5t-5 83t-0.5 59zM240 715q0 -30 0.5 -51t3.5 -71t9 -87.5t19 -91t30.5 -93.5t46 -83t64 -70.5t86 -45.5t109.5 -18q76 0 136.5 29t98 71t65 106t40.5 115.5t20 120t8 99t1 70.5 q0 30 -0.5 51.5t-4 70.5t-9.5 87t-18.5 91t-30.5 93.5t-46.5 83t-64 70t-86 45.5t-109.5 18q-76 0 -136.5 -29t-98 -71t-65 -106t-40 -115t-19.5 -119.5t-8 -98.5t-1 -71zM514 1489l156 291h143l-197 -291h-102z" />
<glyph unicode="&#xd4;" horiz-adv-x="1216" d="M104 715q0 34 0.5 59t5 83t13 103.5t26 109t41.5 112t63.5 100.5t87.5 85.5t117 55t150 21.5t150 -21.5t117 -55t87.5 -85.5t63.5 -100.5t41.5 -112t26 -109t13 -103.5t5 -83t0.5 -59t-0.5 -59t-5 -83t-13 -103.5t-26 -109t-41.5 -112t-63.5 -100.5t-87.5 -85.5t-117 -55 t-150 -21.5t-150 21.5t-117 55t-87.5 85.5t-63.5 100.5t-41.5 112t-26 109t-13 103.5t-5 83t-0.5 59zM240 715q0 -30 0.5 -51t3.5 -71t9 -87.5t19 -91t30.5 -93.5t46 -83t64 -70.5t86 -45.5t109.5 -18q76 0 136.5 29t98 71t65 106t40.5 115.5t20 120t8 99t1 70.5 q0 30 -0.5 51.5t-4 70.5t-9.5 87t-18.5 91t-30.5 93.5t-46.5 83t-64 70t-86 45.5t-109.5 18q-76 0 -136.5 -29t-98 -71t-65 -106t-40 -115t-19.5 -119.5t-8 -98.5t-1 -71zM350 1489l199 291h119l198 -291h-118l-140 209l-139 -209h-119z" />
<glyph unicode="&#xd5;" horiz-adv-x="1216" d="M104 715q0 34 0.5 59t5 83t13 103.5t26 109t41.5 112t63.5 100.5t87.5 85.5t117 55t150 21.5t150 -21.5t117 -55t87.5 -85.5t63.5 -100.5t41.5 -112t26 -109t13 -103.5t5 -83t0.5 -59t-0.5 -59t-5 -83t-13 -103.5t-26 -109t-41.5 -112t-63.5 -100.5t-87.5 -85.5t-117 -55 t-150 -21.5t-150 21.5t-117 55t-87.5 85.5t-63.5 100.5t-41.5 112t-26 109t-13 103.5t-5 83t-0.5 59zM240 715q0 -30 0.5 -51t3.5 -71t9 -87.5t19 -91t30.5 -93.5t46 -83t64 -70.5t86 -45.5t109.5 -18q76 0 136.5 29t98 71t65 106t40.5 115.5t20 120t8 99t1 70.5 q0 30 -0.5 51.5t-4 70.5t-9.5 87t-18.5 91t-30.5 93.5t-46.5 83t-64 70t-86 45.5t-109.5 18q-76 0 -136.5 -29t-98 -71t-65 -106t-40 -115t-19.5 -119.5t-8 -98.5t-1 -71zM334 1528q0 11 2.5 30t13 51t27.5 57.5t50.5 45t76.5 19.5q21 0 40.5 -6t34.5 -14t50 -28 q73 -43 96 -43q27 0 49.5 29t22.5 72h86q0 -24 -8.5 -55.5t-25.5 -66t-49.5 -58t-74.5 -23.5q-59 0 -129 49q-62 41 -92 41q-39 0 -61.5 -36.5t-22.5 -63.5h-86z" />
<glyph unicode="&#xd6;" horiz-adv-x="1216" d="M104 715q0 34 0.5 59t5 83t13 103.5t26 109t41.5 112t63.5 100.5t87.5 85.5t117 55t150 21.5t150 -21.5t117 -55t87.5 -85.5t63.5 -100.5t41.5 -112t26 -109t13 -103.5t5 -83t0.5 -59t-0.5 -59t-5 -83t-13 -103.5t-26 -109t-41.5 -112t-63.5 -100.5t-87.5 -85.5t-117 -55 t-150 -21.5t-150 21.5t-117 55t-87.5 85.5t-63.5 100.5t-41.5 112t-26 109t-13 103.5t-5 83t-0.5 59zM240 715q0 -30 0.5 -51t3.5 -71t9 -87.5t19 -91t30.5 -93.5t46 -83t64 -70.5t86 -45.5t109.5 -18q76 0 136.5 29t98 71t65 106t40.5 115.5t20 120t8 99t1 70.5 q0 30 -0.5 51.5t-4 70.5t-9.5 87t-18.5 91t-30.5 93.5t-46.5 83t-64 70t-86 45.5t-109.5 18q-76 0 -136.5 -29t-98 -71t-65 -106t-40 -115t-19.5 -119.5t-8 -98.5t-1 -71zM395 1546v201h119v-201h-119zM702 1546v201h119v-201h-119z" />
<glyph unicode="&#xd7;" horiz-adv-x="1228" d="M152 129l389 389l-389 389l73 74l389 -391l390 391l73 -74l-391 -389l391 -389l-73 -74l-390 391l-389 -391z" />
<glyph unicode="&#xd8;" horiz-adv-x="1216" d="M18 33l172 217q-86 178 -86 465q0 34 0.5 59t5 83t13 103.5t26 109t41.5 112t63.5 100.5t87.5 85.5t117 55t150 21.5q247 0 375 -189l158 201l57 -49l-174 -221q88 -178 88 -471q0 -34 -0.5 -59t-5 -83t-13 -103.5t-26 -109t-41.5 -112t-63.5 -100.5t-87.5 -85.5 t-117 -55t-150 -21.5q-249 0 -379 194l-153 -194zM240 715q0 -207 45 -344l610 774q-94 180 -287 180q-76 0 -136.5 -29t-98 -71t-65 -106t-40 -115t-19.5 -119.5t-8 -98.5t-1 -71zM317 291q95 -187 291 -187q76 0 136.5 29t98 71t65 106t40.5 115.5t20 120t8 99t1 70.5 q0 213 -47 352z" />
<glyph unicode="&#xd9;" horiz-adv-x="1175" d="M164 526v904h127v-902q0 -71 6 -127t25 -114t50.5 -96.5t86.5 -62.5t129 -24q77 0 133.5 26.5t87 66t48.5 100t23 112.5t5 119v902h127v-904q0 -89 -12 -165t-42 -147t-77 -120t-121.5 -78.5t-171.5 -29.5t-171 27t-121.5 74t-77.5 116.5t-42 148t-12 174.5zM383 1780 h143l156 -291h-102z" />
<glyph unicode="&#xda;" horiz-adv-x="1175" d="M164 526v904h127v-902q0 -71 6 -127t25 -114t50.5 -96.5t86.5 -62.5t129 -24q77 0 133.5 26.5t87 66t48.5 100t23 112.5t5 119v902h127v-904q0 -89 -12 -165t-42 -147t-77 -120t-121.5 -78.5t-171.5 -29.5t-171 27t-121.5 74t-77.5 116.5t-42 148t-12 174.5zM494 1489 l155 291h144l-197 -291h-102z" />
<glyph unicode="&#xdb;" horiz-adv-x="1175" d="M164 526v904h127v-902q0 -71 6 -127t25 -114t50.5 -96.5t86.5 -62.5t129 -24q77 0 133.5 26.5t87 66t48.5 100t23 112.5t5 119v902h127v-904q0 -89 -12 -165t-42 -147t-77 -120t-121.5 -78.5t-171.5 -29.5t-171 27t-121.5 74t-77.5 116.5t-42 148t-12 174.5zM330 1489 l198 291h119l199 -291h-119l-139 209l-139 -209h-119z" />
<glyph unicode="&#xdc;" horiz-adv-x="1175" d="M164 526v904h127v-902q0 -71 6 -127t25 -114t50.5 -96.5t86.5 -62.5t129 -24q77 0 133.5 26.5t87 66t48.5 100t23 112.5t5 119v902h127v-904q0 -89 -12 -165t-42 -147t-77 -120t-121.5 -78.5t-171.5 -29.5t-171 27t-121.5 74t-77.5 116.5t-42 148t-12 174.5zM375 1546 v201h119v-201h-119zM682 1546v201h119v-201h-119z" />
<glyph unicode="&#xdd;" horiz-adv-x="1024" d="M88 1430h135l291 -693l287 693h135l-361 -809v-621h-126v621zM418 1489l155 291h144l-197 -291h-102z" />
<glyph unicode="&#xde;" horiz-adv-x="948" d="M164 0v1430h127v-308h141q436 0 436 -403q0 -89 -24 -160t-63 -116t-92 -74.5t-107.5 -41.5t-112.5 -12h-178v-315h-127zM291 434h129q152 0 232.5 64t80.5 221q0 81 -25 138.5t-56 85.5t-84.5 42.5t-84.5 16.5t-82 2h-110v-570z" />
<glyph unicode="&#xdf;" horiz-adv-x="948" d="M123 0v1098q0 108 24 192t61 133.5t87 82t95.5 44t92.5 11.5q136 0 228 -100t92 -277q0 -16 -1 -33t-6.5 -50t-14.5 -62.5t-28 -64.5t-44.5 -62t-65.5 -50t-90 -33v-4q85 -11 146.5 -46.5t96.5 -91.5t51.5 -122t16.5 -145q0 -26 -2 -54.5t-11 -73t-23.5 -84t-42 -81.5 t-64.5 -72t-93.5 -49.5t-125.5 -19.5q-77 0 -135 14l14 127q42 -23 100 -23q50 0 93.5 18.5t81 57.5t59.5 110t22 167q0 80 -25 137.5t-71.5 91.5t-105 50.5t-134.5 19.5v118q133 0 204 83t71 217q0 18 -0.5 32t-4.5 44t-11 52.5t-22 50.5t-36 46t-54 30.5t-75 12.5 q-51 0 -91 -17.5t-64 -49.5t-40 -68t-23.5 -83.5t-10 -84.5t-2.5 -82v-1057h-119z" />
<glyph unicode="&#xe0;" horiz-adv-x="909" d="M84 289q0 69 21 124t52 90t79.5 60t89.5 37.5t97.5 19.5t88.5 8t76 1h76q0 29 -0.5 46t-2.5 47t-5.5 48.5t-11 45t-18 43t-27.5 35.5t-38 29.5t-50.5 17.5t-64.5 7q-132 0 -262 -108l-18 127q61 33 95 49t86 29.5t106 13.5q321 0 321 -346v-480q0 -77 12 -233h-106 l-8 150h-4q-54 -87 -123 -125.5t-170 -38.5q-122 0 -206.5 88t-84.5 215zM211 289q0 -73 51.5 -133t140.5 -60q23 0 49 4t66 22.5t70.5 49t53 90.5t22.5 141v123q-195 0 -270 -16q-139 -29 -171 -135q-12 -37 -12 -86zM250 1491h143l156 -291h-103z" />
<glyph unicode="&#xe1;" horiz-adv-x="909" d="M84 289q0 69 21 124t52 90t79.5 60t89.5 37.5t97.5 19.5t88.5 8t76 1h76q0 29 -0.5 46t-2.5 47t-5.5 48.5t-11 45t-18 43t-27.5 35.5t-38 29.5t-50.5 17.5t-64.5 7q-132 0 -262 -108l-18 127q61 33 95 49t86 29.5t106 13.5q321 0 321 -346v-480q0 -77 12 -233h-106 l-8 150h-4q-54 -87 -123 -125.5t-170 -38.5q-122 0 -206.5 88t-84.5 215zM211 289q0 -73 51.5 -133t140.5 -60q23 0 49 4t66 22.5t70.5 49t53 90.5t22.5 141v123q-195 0 -270 -16q-139 -29 -171 -135q-12 -37 -12 -86zM360 1200l156 291h143l-196 -291h-103z" />
<glyph unicode="&#xe2;" horiz-adv-x="909" d="M84 289q0 69 21 124t52 90t79.5 60t89.5 37.5t97.5 19.5t88.5 8t76 1h76q0 29 -0.5 46t-2.5 47t-5.5 48.5t-11 45t-18 43t-27.5 35.5t-38 29.5t-50.5 17.5t-64.5 7q-132 0 -262 -108l-18 127q61 33 95 49t86 29.5t106 13.5q321 0 321 -346v-480q0 -77 12 -233h-106 l-8 150h-4q-54 -87 -123 -125.5t-170 -38.5q-122 0 -206.5 88t-84.5 215zM197 1200l198 291h119l199 -291h-119l-139 209l-140 -209h-118zM211 289q0 -73 51.5 -133t140.5 -60q23 0 49 4t66 22.5t70.5 49t53 90.5t22.5 141v123q-195 0 -270 -16q-139 -29 -171 -135 q-12 -37 -12 -86z" />
<glyph unicode="&#xe3;" horiz-adv-x="909" d="M84 289q0 69 21 124t52 90t79.5 60t89.5 37.5t97.5 19.5t88.5 8t76 1h76q0 29 -0.5 46t-2.5 47t-5.5 48.5t-11 45t-18 43t-27.5 35.5t-38 29.5t-50.5 17.5t-64.5 7q-132 0 -262 -108l-18 127q61 33 95 49t86 29.5t106 13.5q321 0 321 -346v-480q0 -77 12 -233h-106 l-8 150h-4q-54 -87 -123 -125.5t-170 -38.5q-122 0 -206.5 88t-84.5 215zM180 1239q0 11 2.5 30t13 51t27.5 57.5t50.5 45t76.5 19.5q30 0 53.5 -9.5t71.5 -37.5q73 -43 96 -43q27 0 49.5 28.5t22.5 71.5h86q0 -24 -8.5 -55.5t-25.5 -66t-49.5 -58t-74.5 -23.5 q-59 0 -129 49q-62 41 -92 41q-39 0 -61.5 -36.5t-22.5 -63.5h-86zM211 289q0 -73 51.5 -133t140.5 -60q23 0 49 4t66 22.5t70.5 49t53 90.5t22.5 141v123q-195 0 -270 -16q-139 -29 -171 -135q-12 -37 -12 -86z" />
<glyph unicode="&#xe4;" horiz-adv-x="909" d="M84 289q0 69 21 124t52 90t79.5 60t89.5 37.5t97.5 19.5t88.5 8t76 1h76q0 29 -0.5 46t-2.5 47t-5.5 48.5t-11 45t-18 43t-27.5 35.5t-38 29.5t-50.5 17.5t-64.5 7q-132 0 -262 -108l-18 127q61 33 95 49t86 29.5t106 13.5q321 0 321 -346v-480q0 -77 12 -233h-106 l-8 150h-4q-54 -87 -123 -125.5t-170 -38.5q-122 0 -206.5 88t-84.5 215zM211 289q0 -73 51.5 -133t140.5 -60q23 0 49 4t66 22.5t70.5 49t53 90.5t22.5 141v123q-195 0 -270 -16q-139 -29 -171 -135q-12 -37 -12 -86zM242 1257v201h118v-201h-118zM549 1257v201h119v-201 h-119z" />
<glyph unicode="&#xe5;" horiz-adv-x="909" d="M84 289q0 69 21 124t52 90t79.5 60t89.5 37.5t97.5 19.5t88.5 8t76 1h76q0 29 -0.5 46t-2.5 47t-5.5 48.5t-11 45t-18 43t-27.5 35.5t-38 29.5t-50.5 17.5t-64.5 7q-132 0 -262 -108l-18 127q61 33 95 49t86 29.5t106 13.5q321 0 321 -346v-480q0 -77 12 -233h-106 l-8 150h-4q-54 -87 -123 -125.5t-170 -38.5q-122 0 -206.5 88t-84.5 215zM211 289q0 -73 51.5 -133t140.5 -60q23 0 49 4t66 22.5t70.5 49t53 90.5t22.5 141v123q-195 0 -270 -16q-139 -29 -171 -135q-12 -37 -12 -86zM256 1362q0 83 58 141t141 58t140.5 -58t57.5 -141 t-57.5 -141t-140.5 -58t-141 58t-58 141zM326 1362q0 -54 37.5 -91.5t91.5 -37.5t91.5 37.5t37.5 91.5t-37.5 91.5t-91.5 37.5t-91.5 -37.5t-37.5 -91.5z" />
<glyph unicode="&#xe6;" horiz-adv-x="1402" d="M76 287q0 93 35 161.5t96.5 107t135.5 56t163 17.5h115q0 39 -1 66t-5.5 63t-12.5 61t-23 51t-36 42t-52 26t-71 10q-47 0 -94 -17t-69.5 -31t-63.5 -44l-11 117q6 6 36.5 24t94 40t121.5 22q55 0 101 -17t73.5 -39t48.5 -51.5t29 -48t12 -33.5q27 53 60.5 91.5 t61.5 56.5t63 28t52 11.5t42 1.5q68 0 123.5 -23t91 -58t62 -86t40.5 -97.5t21.5 -103t9.5 -92t2 -73.5h-579v-45q0 -31 4.5 -70t21.5 -97.5t45 -104.5t82 -79.5t125 -33.5q22 0 45.5 4.5t41.5 9.5t41 15t35 16t33.5 17t26.5 14l8 -135q-43 -22 -116.5 -36.5t-124.5 -14.5 q-133 0 -217 65t-119 170h-4q-8 -25 -17.5 -47.5t-35 -59.5t-58 -62.5t-87.5 -45.5t-122 -20q-54 0 -98.5 15t-72.5 38t-49.5 54t-32.5 59.5t-17.5 59t-8 47t-1.5 28.5zM203 287q0 -84 49 -137.5t127 -53.5q63 0 111.5 30.5t76 80.5t41 107t13.5 116v96q-46 0 -76.5 -1 t-78 -6t-80.5 -14t-70 -26.5t-60 -42t-38 -63t-15 -86.5zM748 629h452q0 15 -0.5 29t-5 49t-12 63t-23.5 63t-38.5 58.5t-58.5 40t-81 16.5q-46 0 -84 -17.5t-61.5 -43t-41 -61t-26 -66t-13.5 -62.5t-6 -46.5t-1 -22.5z" />
<glyph unicode="&#xe7;" horiz-adv-x="757" d="M84 518q0 162 46.5 282t145 189.5t240.5 69.5q104 0 195 -37l-6 -135q-64 53 -189 53q-62 0 -115.5 -22t-96.5 -67t-68 -121.5t-25 -176.5q0 -109 23.5 -193t57.5 -131t80.5 -76.5t85 -39t77.5 -9.5q44 0 98 14t78 42l10 -135q-86 -39 -203 -39h-16l-78 -99l4 -4 q37 11 61 11q68 0 116 -36.5t48 -101.5q0 -57 -34 -96t-81.5 -54.5t-103.5 -15.5q-127 0 -176 33l21 58q4 -1 15 -5t14.5 -5t12.5 -4t13 -4l12 -3t12.5 -3t12 -2t13.5 -1.5t14 -1t16 -0.5q129 0 129 94q0 40 -30.5 63t-70.5 23q-9 0 -18.5 -1.5t-20.5 -5t-17.5 -6 l-19.5 -7.5t-18 -7l-26 29l114 160q-153 30 -252.5 164t-99.5 360z" />
<glyph unicode="&#xe8;" horiz-adv-x="872" d="M84 522q0 141 32.5 248.5t87.5 168.5t118.5 90.5t132.5 29.5q63 0 113.5 -19t85 -50t59.5 -78.5t39.5 -95t22.5 -109t10.5 -112t2.5 -112.5h-577q0 -79 14.5 -143t35.5 -103.5t52 -68t56.5 -42t58 -21t46.5 -8.5t32 -1q53 0 117.5 24t107.5 62l6 -137q-107 -59 -243 -59 q-66 0 -122 15.5t-95.5 39.5t-71 61.5t-51.5 72.5t-34 81.5t-21 80t-10.5 76.5t-4 62.5t-0.5 46.5zM211 594h451q0 99 -19.5 171t-51.5 110t-67.5 55.5t-74.5 17.5q-58 0 -105 -36t-75 -91t-43 -114.5t-15 -112.5zM231 1491h144l155 -291h-102z" />
<glyph unicode="&#xe9;" horiz-adv-x="872" d="M84 522q0 141 32.5 248.5t87.5 168.5t118.5 90.5t132.5 29.5q63 0 113.5 -19t85 -50t59.5 -78.5t39.5 -95t22.5 -109t10.5 -112t2.5 -112.5h-577q0 -79 14.5 -143t35.5 -103.5t52 -68t56.5 -42t58 -21t46.5 -8.5t32 -1q53 0 117.5 24t107.5 62l6 -137q-107 -59 -243 -59 q-66 0 -122 15.5t-95.5 39.5t-71 61.5t-51.5 72.5t-34 81.5t-21 80t-10.5 76.5t-4 62.5t-0.5 46.5zM211 594h451q0 99 -19.5 171t-51.5 110t-67.5 55.5t-74.5 17.5q-58 0 -105 -36t-75 -91t-43 -114.5t-15 -112.5zM342 1200l156 291h143l-197 -291h-102z" />
<glyph unicode="&#xea;" horiz-adv-x="872" d="M84 522q0 141 32.5 248.5t87.5 168.5t118.5 90.5t132.5 29.5q63 0 113.5 -19t85 -50t59.5 -78.5t39.5 -95t22.5 -109t10.5 -112t2.5 -112.5h-577q0 -79 14.5 -143t35.5 -103.5t52 -68t56.5 -42t58 -21t46.5 -8.5t32 -1q53 0 117.5 24t107.5 62l6 -137q-107 -59 -243 -59 q-66 0 -122 15.5t-95.5 39.5t-71 61.5t-51.5 72.5t-34 81.5t-21 80t-10.5 76.5t-4 62.5t-0.5 46.5zM178 1200l199 291h119l198 -291h-119l-139 209l-139 -209h-119zM211 594h451q0 99 -19.5 171t-51.5 110t-67.5 55.5t-74.5 17.5q-58 0 -105 -36t-75 -91t-43 -114.5 t-15 -112.5z" />
<glyph unicode="&#xeb;" horiz-adv-x="872" d="M84 522q0 141 32.5 248.5t87.5 168.5t118.5 90.5t132.5 29.5q63 0 113.5 -19t85 -50t59.5 -78.5t39.5 -95t22.5 -109t10.5 -112t2.5 -112.5h-577q0 -79 14.5 -143t35.5 -103.5t52 -68t56.5 -42t58 -21t46.5 -8.5t32 -1q53 0 117.5 24t107.5 62l6 -137q-107 -59 -243 -59 q-66 0 -122 15.5t-95.5 39.5t-71 61.5t-51.5 72.5t-34 81.5t-21 80t-10.5 76.5t-4 62.5t-0.5 46.5zM211 594h451q0 99 -19.5 171t-51.5 110t-67.5 55.5t-74.5 17.5q-58 0 -105 -36t-75 -91t-43 -114.5t-15 -112.5zM223 1257v201h119v-201h-119zM530 1257v201h119v-201h-119z " />
<glyph unicode="&#xec;" horiz-adv-x="417" d="M4 1491h143l156 -291h-102zM150 0v1044h118v-1044h-118z" />
<glyph unicode="&#xed;" horiz-adv-x="417" d="M115 1200l155 291h144l-197 -291h-102zM150 0v1044h118v-1044h-118z" />
<glyph unicode="&#xee;" horiz-adv-x="417" d="M-49 1200l199 291h118l199 -291h-119l-139 209l-139 -209h-119zM150 0v1044h118v-1044h-118z" />
<glyph unicode="&#xef;" horiz-adv-x="417" d="M-4 1257v201h119v-201h-119zM150 0v1044h118v-1044h-118zM303 1257v201h119v-201h-119z" />
<glyph unicode="&#xf0;" horiz-adv-x="950" d="M84 494q0 83 11 156.5t39 144.5t71 122t112.5 82t157.5 31q142 0 234 -108l4 4q-32 118 -102 223t-169 186l-200 -129l-62 54l195 124q-106 73 -223 107l69 70q139 -50 242 -121l188 121l62 -54l-187 -118q177 -141 258.5 -343.5t81.5 -427.5q0 -318 -96 -475t-295 -157 q-88 0 -157.5 31t-112.5 80.5t-71 117.5t-39 136.5t-11 142.5zM211 494q0 -22 0.5 -40.5t5.5 -62t14.5 -78t29 -77.5t46.5 -71.5t70.5 -48.5t97.5 -20t97.5 20t70.5 48.5t46.5 71.5t29 77.5t14.5 78t5.5 62t0.5 40.5q0 29 -0.5 51t-5.5 69.5t-14.5 83.5t-29 80t-46.5 73 t-70.5 49t-97.5 20t-97.5 -20t-70.5 -49t-46.5 -73t-29 -80t-14.5 -83.5t-5.5 -69.5t-0.5 -51z" />
<glyph unicode="&#xf1;" horiz-adv-x="948" d="M131 1044h111q6 -68 8 -153h4q12 22 21 36t33.5 42t50.5 45t69 31t92 14q59 0 106.5 -17t77 -41.5t51 -61.5t31.5 -67.5t16 -70.5t6.5 -58.5t0.5 -42.5v-700h-119v705q0 23 -0.5 36.5t-4 42.5t-10.5 47.5t-21 43t-34 38.5t-52 24.5t-72 10.5q-106 0 -172 -87t-66 -212 v-649h-119v721q0 62 -3.5 174t-4.5 149zM201 1239q0 11 2.5 30t13 51t27.5 57.5t50.5 45t76.5 19.5q30 0 53.5 -9.5t71.5 -37.5q73 -43 96 -43q27 0 49.5 28.5t22.5 71.5h86q0 -24 -8.5 -55.5t-25.5 -66t-49.5 -58t-74.5 -23.5q-59 0 -129 49q-62 41 -92 41 q-39 0 -61.5 -36.5t-22.5 -63.5h-86z" />
<glyph unicode="&#xf2;" horiz-adv-x="950" d="M84 522q0 106 19 196t61.5 169.5t122 125.5t188.5 46t188.5 -46t122 -125.5t61.5 -169.5t19 -196q0 -83 -11 -156.5t-39 -144.5t-71 -122t-112.5 -82t-157.5 -31t-157.5 31t-112.5 82t-71 122t-39 144.5t-11 156.5zM211 522q0 -29 0.5 -51t5.5 -69.5t14.5 -83.5t29 -80 t46.5 -73t70.5 -49t97.5 -20t97.5 20t70.5 49t46.5 73t29 80t14.5 83.5t5.5 69.5t0.5 51t-0.5 51t-5.5 69.5t-14.5 83.5t-29 80t-46.5 73t-70.5 49t-97.5 20t-97.5 -20t-70.5 -49t-46.5 -73t-29 -80t-14.5 -83.5t-5.5 -69.5t-0.5 -51zM270 1491h144l155 -291h-102z" />
<glyph unicode="&#xf3;" horiz-adv-x="950" d="M84 522q0 106 19 196t61.5 169.5t122 125.5t188.5 46t188.5 -46t122 -125.5t61.5 -169.5t19 -196q0 -83 -11 -156.5t-39 -144.5t-71 -122t-112.5 -82t-157.5 -31t-157.5 31t-112.5 82t-71 122t-39 144.5t-11 156.5zM211 522q0 -29 0.5 -51t5.5 -69.5t14.5 -83.5t29 -80 t46.5 -73t70.5 -49t97.5 -20t97.5 20t70.5 49t46.5 73t29 80t14.5 83.5t5.5 69.5t0.5 51t-0.5 51t-5.5 69.5t-14.5 83.5t-29 80t-46.5 73t-70.5 49t-97.5 20t-97.5 -20t-70.5 -49t-46.5 -73t-29 -80t-14.5 -83.5t-5.5 -69.5t-0.5 -51zM381 1200l156 291h143l-197 -291h-102z " />
<glyph unicode="&#xf4;" horiz-adv-x="950" d="M84 522q0 106 19 196t61.5 169.5t122 125.5t188.5 46t188.5 -46t122 -125.5t61.5 -169.5t19 -196q0 -83 -11 -156.5t-39 -144.5t-71 -122t-112.5 -82t-157.5 -31t-157.5 31t-112.5 82t-71 122t-39 144.5t-11 156.5zM211 522q0 -29 0.5 -51t5.5 -69.5t14.5 -83.5t29 -80 t46.5 -73t70.5 -49t97.5 -20t97.5 20t70.5 49t46.5 73t29 80t14.5 83.5t5.5 69.5t0.5 51t-0.5 51t-5.5 69.5t-14.5 83.5t-29 80t-46.5 73t-70.5 49t-97.5 20t-97.5 -20t-70.5 -49t-46.5 -73t-29 -80t-14.5 -83.5t-5.5 -69.5t-0.5 -51zM217 1200l199 291h119l198 -291h-119 l-139 209l-139 -209h-119z" />
<glyph unicode="&#xf5;" horiz-adv-x="950" d="M84 522q0 106 19 196t61.5 169.5t122 125.5t188.5 46t188.5 -46t122 -125.5t61.5 -169.5t19 -196q0 -83 -11 -156.5t-39 -144.5t-71 -122t-112.5 -82t-157.5 -31t-157.5 31t-112.5 82t-71 122t-39 144.5t-11 156.5zM201 1239q0 11 2.5 30t13 51t27.5 57.5t50.5 45 t76.5 19.5q30 0 53.5 -9.5t71.5 -37.5q73 -43 96 -43q27 0 49.5 28.5t22.5 71.5h86q0 -24 -8.5 -55.5t-25.5 -66t-49.5 -58t-74.5 -23.5q-59 0 -129 49q-62 41 -92 41q-39 0 -61.5 -36.5t-22.5 -63.5h-86zM211 522q0 -29 0.5 -51t5.5 -69.5t14.5 -83.5t29 -80t46.5 -73 t70.5 -49t97.5 -20t97.5 20t70.5 49t46.5 73t29 80t14.5 83.5t5.5 69.5t0.5 51t-0.5 51t-5.5 69.5t-14.5 83.5t-29 80t-46.5 73t-70.5 49t-97.5 20t-97.5 -20t-70.5 -49t-46.5 -73t-29 -80t-14.5 -83.5t-5.5 -69.5t-0.5 -51z" />
<glyph unicode="&#xf6;" horiz-adv-x="950" d="M84 522q0 106 19 196t61.5 169.5t122 125.5t188.5 46t188.5 -46t122 -125.5t61.5 -169.5t19 -196q0 -83 -11 -156.5t-39 -144.5t-71 -122t-112.5 -82t-157.5 -31t-157.5 31t-112.5 82t-71 122t-39 144.5t-11 156.5zM211 522q0 -29 0.5 -51t5.5 -69.5t14.5 -83.5t29 -80 t46.5 -73t70.5 -49t97.5 -20t97.5 20t70.5 49t46.5 73t29 80t14.5 83.5t5.5 69.5t0.5 51t-0.5 51t-5.5 69.5t-14.5 83.5t-29 80t-46.5 73t-70.5 49t-97.5 20t-97.5 -20t-70.5 -49t-46.5 -73t-29 -80t-14.5 -83.5t-5.5 -69.5t-0.5 -51zM262 1257v201h119v-201h-119zM569 1257 v201h119v-201h-119z" />
<glyph unicode="&#xf7;" horiz-adv-x="1228" d="M96 467v102h1037v-102h-1037zM502 98q0 46 33 79.5t79 33.5t79.5 -33.5t33.5 -79.5t-33.5 -79t-79.5 -33t-79 33t-33 79zM502 938q0 46 33 79.5t79 33.5t79.5 -33.5t33.5 -79.5t-33.5 -79.5t-79.5 -33.5t-79 33.5t-33 79.5z" />
<glyph unicode="&#xf8;" horiz-adv-x="948" d="M33 29l121 153q-70 135 -70 340q0 106 19 196t61.5 169.5t122 125.5t188.5 46q179 0 275 -121l94 121l53 -45l-106 -135q75 -134 75 -357q0 -83 -11 -156.5t-39 -144.5t-71 -122t-112.5 -82t-157.5 -31q-183 0 -282 133l-107 -133zM211 522q0 -137 29 -229l432 547 q-66 108 -197 108q-54 0 -97.5 -20t-70.5 -49t-46.5 -73t-29 -80t-14.5 -83.5t-5.5 -69.5t-0.5 -51zM270 219q65 -123 205 -123q54 0 97.5 20t70.5 49t46.5 73t29 80t14.5 83.5t5.5 69.5t0.5 51q0 155 -34 248z" />
<glyph unicode="&#xf9;" horiz-adv-x="948" d="M139 315v729h119v-704q0 -23 0.5 -37t4 -42.5t10.5 -47.5t21.5 -43t34.5 -38.5t52 -25t72 -10.5q106 0 171.5 87t65.5 212v649h119v-720q0 -62 3.5 -174.5t4.5 -149.5h-110q-7 84 -9 154h-4q-5 -20 -23 -46t-48.5 -54.5t-82 -48t-112.5 -19.5q-82 0 -140.5 27.5 t-89.5 75.5t-45 103.5t-14 122.5zM270 1491h144l155 -291h-102z" />
<glyph unicode="&#xfa;" horiz-adv-x="948" d="M139 315v729h119v-704q0 -23 0.5 -37t4 -42.5t10.5 -47.5t21.5 -43t34.5 -38.5t52 -25t72 -10.5q106 0 171.5 87t65.5 212v649h119v-720q0 -62 3.5 -174.5t4.5 -149.5h-110q-7 84 -9 154h-4q-5 -20 -23 -46t-48.5 -54.5t-82 -48t-112.5 -19.5q-82 0 -140.5 27.5 t-89.5 75.5t-45 103.5t-14 122.5zM381 1200l156 291h143l-197 -291h-102z" />
<glyph unicode="&#xfb;" horiz-adv-x="948" d="M139 315v729h119v-704q0 -23 0.5 -37t4 -42.5t10.5 -47.5t21.5 -43t34.5 -38.5t52 -25t72 -10.5q106 0 171.5 87t65.5 212v649h119v-720q0 -62 3.5 -174.5t4.5 -149.5h-110q-7 84 -9 154h-4q-5 -20 -23 -46t-48.5 -54.5t-82 -48t-112.5 -19.5q-82 0 -140.5 27.5 t-89.5 75.5t-45 103.5t-14 122.5zM217 1200l199 291h119l198 -291h-119l-139 209l-139 -209h-119z" />
<glyph unicode="&#xfc;" horiz-adv-x="948" d="M139 315v729h119v-704q0 -23 0.5 -37t4 -42.5t10.5 -47.5t21.5 -43t34.5 -38.5t52 -25t72 -10.5q106 0 171.5 87t65.5 212v649h119v-720q0 -62 3.5 -174.5t4.5 -149.5h-110q-7 84 -9 154h-4q-5 -20 -23 -46t-48.5 -54.5t-82 -48t-112.5 -19.5q-82 0 -140.5 27.5 t-89.5 75.5t-45 103.5t-14 122.5zM262 1257v201h119v-201h-119zM569 1257v201h119v-201h-119z" />
<glyph unicode="&#xfd;" horiz-adv-x="757" d="M20 1044h127l234 -868h4l233 868h119l-342 -1239q-8 -29 -12 -42t-12 -38.5t-13.5 -38t-15 -33.5t-18.5 -31.5t-22 -25.5t-27 -22t-32 -15t-39 -11t-46 -3q-33 0 -80 13l6 120q31 -22 84 -22q73 0 106 121l54 198zM285 1200l155 291h144l-197 -291h-102z" />
<glyph unicode="&#xfe;" horiz-adv-x="948" d="M123 1536h127v-627h4q95 150 258 150q70 0 126.5 -24.5t92 -61.5t62.5 -89.5t40 -98t20.5 -98t9 -79.5t1.5 -51q0 -92 -11.5 -174t-38.5 -155.5t-66 -126.5t-98 -84t-132 -31q-187 0 -264 145h-4v-573h-119v1632q0 166 -8 346zM242 535q0 -43 0.5 -69t5.5 -77.5t14 -85.5 t28 -77t45.5 -68.5t68 -43.5t94.5 -18q239 0 239 426q0 30 -0.5 51.5t-5 69.5t-12.5 83.5t-26 80t-42 73t-63 48.5t-88 20q-59 0 -104.5 -23t-74 -61t-47 -92t-25.5 -111.5t-7 -125.5z" />
<glyph unicode="&#xff;" horiz-adv-x="757" d="M20 1044h127l234 -868h4l233 868h119l-342 -1239q-8 -29 -12 -42t-12 -38.5t-13.5 -38t-15 -33.5t-18.5 -31.5t-22 -25.5t-27 -22t-32 -15t-39 -11t-46 -3q-33 0 -80 13l6 120q31 -22 84 -22q73 0 106 121l54 198zM166 1257v201h119v-201h-119zM473 1257v201h119v-201 h-119z" />
<glyph unicode="&#x152;" horiz-adv-x="1517" d="M104 715q0 123 16.5 228t56 199t101 159.5t155.5 104t214 38.5q15 0 30.5 -1t35 -2.5t30.5 -2.5q66 -8 97 -8h538v-119h-446v-508h424v-119h-424v-565h469v-119h-561q-14 0 -30 -1t-36 -2.5t-31 -2.5q-66 -8 -96 -8q-120 0 -214 38.5t-155.5 104t-101 159.5t-56 199 t-16.5 228zM231 715q0 -290 100.5 -450.5t309.5 -160.5q40 0 95 5t69 10v1192q-14 5 -68.5 9.5t-95.5 4.5q-209 0 -309.5 -160t-100.5 -450z" />
<glyph unicode="&#x153;" horiz-adv-x="1517" d="M84 522q0 106 19 196t61.5 169.5t122 125.5t188.5 46q126 0 209 -58.5t125 -160.5q48 111 131 165t178 54q63 0 114 -19t85 -50t59.5 -78t39.5 -95t22.5 -109.5t11 -112t2.5 -112.5h-586q0 -79 15 -143t37 -103.5t54.5 -68t58.5 -42t59.5 -21t47.5 -8.5t31 -1 q53 0 118 24t108 62l6 -137q-107 -59 -244 -59q-251 0 -352 215q-90 -215 -330 -215q-88 0 -157.5 31t-112.5 82t-71 122t-39 144.5t-11 156.5zM211 522q0 -29 0.5 -51t5.5 -69.5t14.5 -83.5t29 -80t46.5 -73t70.5 -49t97.5 -20t97.5 20t70.5 49t46.5 73t29 80t14.5 83.5 t5.5 69.5t0.5 51t-0.5 51t-5.5 69.5t-14.5 83.5t-29 80t-46.5 73t-70.5 49t-97.5 20t-97.5 -20t-70.5 -49t-46.5 -73t-29 -80t-14.5 -83.5t-5.5 -69.5t-0.5 -51zM866 594h459q0 99 -19.5 171t-51.5 110t-67.5 55.5t-74.5 17.5q-60 0 -109.5 -36t-78 -91t-43.5 -114t-15 -113 z" />
<glyph unicode="&#x178;" horiz-adv-x="1024" d="M88 1430h135l291 -693l287 693h135l-361 -809v-621h-126v621zM299 1546v201h119v-201h-119zM606 1546v201h119v-201h-119z" />
<glyph unicode="&#x2c6;" horiz-adv-x="380" d="M-68 1200l199 291h119l199 -291h-119l-140 209l-139 -209h-119z" />
<glyph unicode="&#x2dc;" horiz-adv-x="380" d="M-84 1239q0 11 2.5 30t13 51t27.5 57.5t50.5 45t76.5 19.5q30 0 53.5 -9.5t71.5 -37.5q73 -43 96 -43q27 0 49.5 28.5t22.5 71.5h86q0 -24 -8.5 -55.5t-25.5 -66t-49.5 -58t-74.5 -23.5q-59 0 -129 49q-62 41 -92 41q-39 0 -61.5 -36.5t-22.5 -63.5h-86z" />
<glyph unicode="&#x2000;" horiz-adv-x="935" />
<glyph unicode="&#x2001;" horiz-adv-x="1870" />
<glyph unicode="&#x2002;" horiz-adv-x="935" />
<glyph unicode="&#x2003;" horiz-adv-x="1870" />
<glyph unicode="&#x2004;" horiz-adv-x="623" />
<glyph unicode="&#x2005;" horiz-adv-x="467" />
<glyph unicode="&#x2006;" horiz-adv-x="311" />
<glyph unicode="&#x2007;" horiz-adv-x="311" />
<glyph unicode="&#x2008;" horiz-adv-x="233" />
<glyph unicode="&#x2009;" horiz-adv-x="374" />
<glyph unicode="&#x200a;" horiz-adv-x="103" />
<glyph unicode="&#x2010;" horiz-adv-x="606" d="M94 512v119h418v-119h-418z" />
<glyph unicode="&#x2011;" horiz-adv-x="606" d="M94 512v119h418v-119h-418z" />
<glyph unicode="&#x2012;" horiz-adv-x="606" d="M94 512v119h418v-119h-418z" />
<glyph unicode="&#x2013;" horiz-adv-x="1024" d="M0 516v111h1024v-111h-1024z" />
<glyph unicode="&#x2014;" horiz-adv-x="2048" d="M0 516v111h2048v-111h-2048z" />
<glyph unicode="&#x2018;" horiz-adv-x="491" d="M121 1081l131 455h119l-99 -455h-151z" />
<glyph unicode="&#x2019;" horiz-adv-x="491" d="M121 1081l98 455h152l-131 -455h-119z" />
<glyph unicode="&#x201a;" horiz-adv-x="491" d="M121 -270l98 454h152l-131 -454h-119z" />
<glyph unicode="&#x201c;" d="M219 1081l131 455h119l-98 -455h-152zM514 1081l131 455h119l-98 -455h-152z" />
<glyph unicode="&#x201d;" d="M219 1081l98 455h152l-131 -455h-119zM514 1081l98 455h152l-131 -455h-119z" />
<glyph unicode="&#x201e;" d="M219 -270l98 454h152l-131 -454h-119zM514 -270l98 454h152l-131 -454h-119z" />
<glyph unicode="&#x2022;" horiz-adv-x="1024" d="M154 715q0 149 104.5 253.5t253.5 104.5t253.5 -104.5t104.5 -253.5t-104.5 -254t-253.5 -105t-253.5 105t-104.5 254z" />
<glyph unicode="&#x2026;" horiz-adv-x="2048" d="M262 0v201h160v-201h-160zM944 0v201h160v-201h-160zM1626 0v201h160v-201h-160z" />
<glyph unicode="&#x202f;" horiz-adv-x="374" />
<glyph unicode="&#x2039;" horiz-adv-x="530" d="M92 541l236 413h110l-219 -413l219 -430h-110z" />
<glyph unicode="&#x203a;" horiz-adv-x="530" d="M92 111l219 413l-219 430h111l235 -430l-235 -413h-111z" />
<glyph unicode="&#x205f;" horiz-adv-x="467" />
<glyph unicode="&#x2122;" horiz-adv-x="2048" d="M106 1335v95h656v-95h-277v-757h-102v757h-277zM913 578v852h177l270 -685l262 685h176v-852h-102v757h-4l-306 -757h-61l-305 757h-4v-757h-103z" />
<glyph unicode="&#x25fc;" horiz-adv-x="1044" d="M0 0v1044h1044v-1044h-1044z" />
<glyph unicode="&#xfb01;" horiz-adv-x="948" d="M31 934v110h162v224q0 51 6 91.5t23 79.5t45 65t74 41.5t108 15.5q35 0 90 -11v-118q-45 18 -95 18q-133 0 -133 -160v-246h185v-110h-185v-934h-118v934h-162zM668 1276v184h143v-184h-143zM680 0v1044h119v-1044h-119z" />
<glyph unicode="&#xfb02;" horiz-adv-x="948" d="M31 934v110h162v224q0 51 6 91.5t23 79.5t45 65t74 41.5t108 15.5q35 0 90 -11v-118q-45 18 -95 18q-133 0 -133 -160v-246h185v-110h-185v-934h-118v934h-162zM680 0v1536h119v-1536h-119z" />
</font>
</defs>
</svg>
